# Blender v2.80 (sub 75) OBJ File: ''
# www.blender.org
mtllib rock1.mtl
o caillou2_Icosphere.000
v -0.111128 -0.081719 0.053635
v 0.017304 -0.081573 0.145967
v -0.159976 -0.081852 0.198635
v 0.105672 -0.093346 0.192288
v 0.143821 -0.090959 0.039145
v -0.270297 -0.081756 0.049123
v -0.159879 -0.081832 -0.095522
v 0.015957 -0.081719 -0.038697
v 0.151398 -0.026237 0.081049
v -0.189658 -0.090861 0.262707
v -0.034654 -0.088855 0.284244
v -0.120510 -0.036814 0.272361
v -0.443473 -0.103115 -0.006399
v -0.364387 -0.087439 0.137730
v -0.454689 -0.019085 0.063503
v -0.207743 -0.089281 -0.184464
v -0.352382 -0.098658 -0.115095
v -0.338344 -0.016043 -0.182601
v 0.089342 -0.090254 -0.114061
v -0.046349 -0.089138 -0.172326
v 0.048292 0.003696 -0.178370
v 0.063021 -0.022757 0.244403
v -0.336019 -0.014921 0.166922
v -0.461919 -0.034426 -0.081957
v -0.156462 -0.013288 -0.212124
v 0.133581 -0.018225 -0.087673
v -0.058541 0.039277 0.201545
v 0.055446 0.076035 0.090481
v -0.094520 0.121054 0.123351
v -0.377024 0.088822 0.087410
v -0.274099 0.069427 0.111799
v -0.267244 0.132524 0.040903
v -0.369575 0.098967 -0.131711
v -0.377214 0.114678 -0.020440
v -0.263619 0.161249 -0.048344
v -0.077942 0.117307 -0.182183
v -0.252526 0.130214 -0.195100
v -0.126077 0.181261 -0.080135
v 0.103938 0.094034 -0.027773
v 0.038281 0.130826 -0.135311
v -0.013082 0.139625 0.007859
v -0.119206 0.122913 0.044652
vn 0.0006 -1.0000 0.0002
vn 0.0010 -1.0000 0.0002
vn 0.0008 -1.0000 -0.0006
vn -0.1098 -0.9930 -0.0428
vn 0.0002 -1.0000 -0.0001
vn 0.0003 -1.0000 0.0007
vn 0.0005 -1.0000 0.0007
vn 0.9383 -0.2586 0.2297
vn -0.1376 -0.0009 0.9905
vn -0.7445 -0.4829 0.4610
vn -0.3271 -0.5640 -0.7582
vn 0.3557 -0.4171 -0.8364
vn 0.8667 0.1803 0.4651
vn -0.3853 0.3397 0.8580
vn -0.9798 -0.1878 0.0685
vn -0.1517 -0.2461 -0.9573
vn 0.6964 -0.1725 -0.6966
vn 0.3479 0.7234 0.5964
vn -0.0164 0.7477 0.6638
vn -0.4071 0.9001 -0.1550
vn 0.1003 0.8637 -0.4940
vn 0.1004 0.8637 -0.4939
vn 0.0992 0.8636 -0.4944
vn 0.3831 0.9201 0.0809
vn 0.0303 -0.9916 -0.1254
vn -0.0158 -0.9982 -0.0585
vn -0.0876 -0.9925 -0.0852
vn -0.0883 -0.9957 0.0268
vn -0.0729 -0.9973 0.0013
vn 0.1067 -0.9931 0.0492
vn 0.1066 -0.9931 0.0495
vn 0.1067 -0.9931 0.0491
vn 0.0352 -0.9990 -0.0266
vn 0.0603 -0.9919 -0.1115
vn 0.0831 -0.9958 0.0387
vn 0.0806 -0.9948 0.0621
vn 0.1068 -0.9931 0.0488
vn -0.0399 -0.9965 0.0739
vn -0.0203 -0.9977 0.0649
vn -0.0056 -0.9962 0.0865
vn 0.9509 0.2972 -0.0863
vn 0.9931 -0.0469 -0.1071
vn 0.8570 -0.4140 -0.3067
vn 0.0654 0.6508 0.7565
vn 0.1095 0.3894 0.9145
vn 0.5196 -0.2816 0.8067
vn -0.6332 0.2974 0.7146
vn -0.6553 -0.0471 0.7539
vn -0.5802 -0.0985 0.8085
vn -0.6376 0.1603 -0.7535
vn -0.5039 -0.4936 -0.7088
vn -0.5468 -0.6816 -0.4862
vn 0.1503 0.1342 -0.9795
vn 0.1774 -0.2429 -0.9537
vn 0.0696 -0.3824 -0.9214
vn 0.2378 0.8227 0.5163
vn 0.6959 0.6194 0.3633
vn 0.6924 0.6148 0.3775
vn -0.0806 0.5861 0.8062
vn -0.2753 0.6593 0.6996
vn -0.1670 0.7412 0.6502
vn -0.8374 0.5303 -0.1324
vn -0.8678 0.4968 -0.0093
vn -0.8181 0.5588 0.1354
vn 0.0854 0.1736 -0.9811
vn -0.1604 0.0097 -0.9870
vn -0.5101 0.2284 -0.8293
vn 0.8327 0.4153 -0.3663
vn 0.7332 0.2692 -0.6244
vn 0.3206 0.3264 -0.8892
vn -0.1332 0.9890 0.0651
vn 0.3413 0.8602 0.3790
vn 0.4248 0.8527 0.3040
vn 0.0647 0.9979 0.0033
vn -0.2518 0.7349 0.6297
vn -0.2264 0.6193 0.7518
vn 0.0539 0.9499 0.3079
vn -0.3043 0.9103 0.2806
vn -0.2768 0.9343 0.2245
vn -0.0334 0.9047 0.4248
vn -0.1895 0.9576 -0.2168
vn -0.3606 0.9066 -0.2190
vn 0.0041 0.9059 0.4234
vn 0.3090 0.9496 0.0525
vn 0.0990 0.8635 -0.4945
usemtl Material.014
s 1
f 1/0/1 2/0/2 3/0/3
f 4/0/4 2/0/4 5/0/4
f 1/0/1 3/0/3 6/0/5
f 1/0/1 6/0/5 7/0/6
f 1/0/1 7/0/6 8/0/7
f 4/0/8 5/0/8 9/0/8
f 10/0/9 11/0/9 12/0/9
f 13/0/10 14/0/10 15/0/10
f 16/0/11 17/0/11 18/0/11
f 19/0/12 20/0/12 21/0/12
f 4/0/13 9/0/13 22/0/13
f 10/0/14 12/0/14 23/0/14
f 13/0/15 15/0/15 24/0/15
f 16/0/16 18/0/16 25/0/16
f 19/0/17 21/0/17 26/0/17
f 27/0/18 28/0/18 29/0/18
f 30/0/19 31/0/19 32/0/19
f 33/0/20 34/0/20 35/0/20
f 36/0/21 37/0/22 38/0/23
f 39/0/24 40/0/24 41/0/24
f 3/0/25 11/0/25 10/0/25
f 3/0/26 2/0/26 11/0/26
f 2/0/27 4/0/27 11/0/27
f 5/0/28 8/0/28 19/0/28
f 5/0/29 2/0/29 8/0/29
f 2/0/2 1/0/1 8/0/7
f 6/0/30 14/0/31 13/0/32
f 6/0/33 3/0/33 14/0/33
f 3/0/34 10/0/34 14/0/34
f 7/0/35 17/0/35 16/0/35
f 7/0/36 6/0/36 17/0/36
f 6/0/30 13/0/32 17/0/37
f 8/0/38 20/0/38 19/0/38
f 8/0/39 7/0/39 20/0/39
f 7/0/40 16/0/40 20/0/40
f 9/0/41 26/0/41 39/0/41
f 9/0/42 5/0/42 26/0/42
f 5/0/43 19/0/43 26/0/43
f 12/0/44 22/0/44 27/0/44
f 12/0/45 11/0/45 22/0/45
f 11/0/46 4/0/46 22/0/46
f 15/0/47 23/0/47 30/0/47
f 15/0/48 14/0/48 23/0/48
f 14/0/49 10/0/49 23/0/49
f 18/0/50 24/0/50 33/0/50
f 18/0/51 17/0/51 24/0/51
f 17/0/52 13/0/52 24/0/52
f 21/0/53 25/0/53 36/0/53
f 21/0/54 20/0/54 25/0/54
f 20/0/55 16/0/55 25/0/55
f 22/0/56 28/0/56 27/0/56
f 22/0/57 9/0/57 28/0/57
f 9/0/58 39/0/58 28/0/58
f 23/0/59 31/0/59 30/0/59
f 23/0/60 12/0/60 31/0/60
f 12/0/61 27/0/61 31/0/61
f 24/0/62 34/0/62 33/0/62
f 24/0/63 15/0/63 34/0/63
f 15/0/64 30/0/64 34/0/64
f 25/0/65 37/0/65 36/0/65
f 25/0/66 18/0/66 37/0/66
f 18/0/67 33/0/67 37/0/67
f 26/0/68 40/0/68 39/0/68
f 26/0/69 21/0/69 40/0/69
f 21/0/70 36/0/70 40/0/70
f 29/0/71 41/0/71 42/0/71
f 29/0/72 28/0/72 41/0/72
f 28/0/73 39/0/73 41/0/73
f 32/0/74 29/0/74 42/0/74
f 32/0/75 31/0/75 29/0/75
f 31/0/76 27/0/76 29/0/76
f 35/0/77 32/0/77 42/0/77
f 35/0/78 34/0/78 32/0/78
f 34/0/79 30/0/79 32/0/79
f 38/0/80 35/0/80 42/0/80
f 38/0/81 37/0/81 35/0/81
f 37/0/82 33/0/82 35/0/82
f 41/0/83 38/0/83 42/0/83
f 41/0/84 40/0/84 38/0/84
f 40/0/85 36/0/21 38/0/23
