# Blender v2.80 (sub 75) OBJ File: ''
# www.blender.org
mtllib rock1.mtl
o caillou2_Icosphere.000
v 1.914716 -0.064098 3.288686
v 2.043148 -0.063952 3.381018
v 1.865868 -0.064231 3.433686
v 2.131516 -0.075725 3.427339
v 2.169665 -0.073338 3.274196
v 1.755547 -0.064135 3.284174
v 1.865965 -0.064211 3.139529
v 2.041801 -0.064098 3.196354
v 2.177242 -0.008616 3.316100
v 1.836186 -0.073240 3.497758
v 1.991190 -0.071234 3.519295
v 1.905334 -0.019193 3.507412
v 1.582371 -0.085494 3.228652
v 1.661457 -0.069818 3.372781
v 1.571155 -0.001464 3.298554
v 1.818101 -0.071660 3.050587
v 1.673462 -0.081037 3.119956
v 1.687500 0.001578 3.052450
v 2.115186 -0.072633 3.120990
v 1.979495 -0.071517 3.062724
v 2.074136 0.021317 3.056681
v 2.088865 -0.005136 3.479454
v 1.689825 0.002700 3.401973
v 1.563925 -0.016805 3.153094
v 1.869382 0.004333 3.022926
v 2.159425 -0.000604 3.147378
v 1.967303 0.056898 3.436596
v 2.081290 0.093656 3.325532
v 1.931324 0.138675 3.358402
v 1.648820 0.106443 3.322461
v 1.751745 0.087048 3.346850
v 1.758600 0.150145 3.275954
v 1.656269 0.116588 3.103340
v 1.648630 0.132299 3.214611
v 1.762225 0.178870 3.186707
v 1.947902 0.134928 3.052868
v 1.773318 0.147835 3.039951
v 1.899767 0.198882 3.154915
v 2.129782 0.111655 3.207278
v 2.064125 0.148447 3.099740
v 2.012762 0.157246 3.242910
v 1.906638 0.140534 3.279703
vn 0.0014 -1.0000 -0.0004
vn -0.1098 -0.9930 -0.0428
vn 0.0003 -1.0000 -0.0008
vn 0.0002 -1.0000 0.0007
vn 0.0004 -1.0000 0.0006
vn 0.9383 -0.2586 0.2297
vn -0.1376 -0.0009 0.9905
vn -0.7445 -0.4829 0.4610
vn -0.3271 -0.5640 -0.7582
vn 0.3557 -0.4171 -0.8364
vn 0.8667 0.1803 0.4651
vn -0.3853 0.3397 0.8580
vn -0.9798 -0.1878 0.0685
vn -0.1517 -0.2461 -0.9573
vn 0.6964 -0.1725 -0.6966
vn 0.3479 0.7234 0.5964
vn -0.0164 0.7477 0.6638
vn -0.4071 0.9001 -0.1550
vn 0.1004 0.8637 -0.4939
vn 0.3831 0.9201 0.0809
vn 0.0303 -0.9916 -0.1254
vn -0.0158 -0.9982 -0.0585
vn -0.0876 -0.9925 -0.0852
vn -0.0883 -0.9957 0.0268
vn -0.0729 -0.9973 0.0013
vn 0.0006 -1.0000 0.0008
vn 0.1066 -0.9931 0.0495
vn 0.0352 -0.9990 -0.0266
vn 0.0603 -0.9919 -0.1115
vn 0.0831 -0.9958 0.0387
vn 0.0806 -0.9948 0.0621
vn 0.1068 -0.9931 0.0488
vn -0.0399 -0.9965 0.0739
vn -0.0203 -0.9977 0.0649
vn -0.0056 -0.9962 0.0865
vn 0.9509 0.2972 -0.0863
vn 0.9931 -0.0469 -0.1071
vn 0.8570 -0.4140 -0.3067
vn 0.0654 0.6508 0.7565
vn 0.1095 0.3894 0.9145
vn 0.5196 -0.2816 0.8067
vn -0.6332 0.2974 0.7146
vn -0.6553 -0.0471 0.7539
vn -0.5802 -0.0985 0.8085
vn -0.6376 0.1603 -0.7535
vn -0.5039 -0.4936 -0.7088
vn -0.5468 -0.6816 -0.4862
vn 0.1503 0.1342 -0.9795
vn 0.1774 -0.2429 -0.9537
vn 0.0696 -0.3824 -0.9214
vn 0.2378 0.8227 0.5163
vn 0.6959 0.6194 0.3633
vn 0.6924 0.6148 0.3775
vn -0.0806 0.5861 0.8062
vn -0.2753 0.6593 0.6996
vn -0.1670 0.7412 0.6502
vn -0.8374 0.5303 -0.1324
vn -0.8678 0.4968 -0.0093
vn -0.8181 0.5588 0.1354
vn 0.0854 0.1736 -0.9811
vn -0.1604 0.0097 -0.9870
vn -0.5101 0.2284 -0.8293
vn 0.8327 0.4153 -0.3663
vn 0.7332 0.2692 -0.6244
vn 0.3206 0.3264 -0.8892
vn -0.1332 0.9890 0.0651
vn 0.3413 0.8602 0.3790
vn 0.4248 0.8527 0.3040
vn 0.0647 0.9979 0.0033
vn -0.2518 0.7349 0.6297
vn -0.2264 0.6193 0.7518
vn 0.0539 0.9499 0.3079
vn -0.3043 0.9103 0.2806
vn -0.2768 0.9343 0.2245
vn -0.0334 0.9047 0.4248
vn -0.1895 0.9576 -0.2168
vn -0.3606 0.9066 -0.2190
vn 0.0041 0.9059 0.4234
vn 0.3090 0.9496 0.0525
vn 0.0990 0.8635 -0.4945
usemtl Material.014
s off
f 1/0/1 2/0/1 3/0/1
f 4/0/2 2/0/2 5/0/2
f 1/0/3 3/0/3 6/0/3
f 1/0/4 6/0/4 7/0/4
f 1/0/5 7/0/5 8/0/5
f 4/0/6 5/0/6 9/0/6
f 10/0/7 11/0/7 12/0/7
f 13/0/8 14/0/8 15/0/8
f 16/0/9 17/0/9 18/0/9
f 19/0/10 20/0/10 21/0/10
f 4/0/11 9/0/11 22/0/11
f 10/0/12 12/0/12 23/0/12
f 13/0/13 15/0/13 24/0/13
f 16/0/14 18/0/14 25/0/14
f 19/0/15 21/0/15 26/0/15
f 27/0/16 28/0/16 29/0/16
f 30/0/17 31/0/17 32/0/17
f 33/0/18 34/0/18 35/0/18
f 36/0/19 37/0/19 38/0/19
f 39/0/20 40/0/20 41/0/20
f 3/0/21 11/0/21 10/0/21
f 3/0/22 2/0/22 11/0/22
f 2/0/23 4/0/23 11/0/23
f 5/0/24 8/0/24 19/0/24
f 5/0/25 2/0/25 8/0/25
f 2/0/26 1/0/26 8/0/26
f 6/0/27 14/0/27 13/0/27
f 6/0/28 3/0/28 14/0/28
f 3/0/29 10/0/29 14/0/29
f 7/0/30 17/0/30 16/0/30
f 7/0/31 6/0/31 17/0/31
f 6/0/32 13/0/32 17/0/32
f 8/0/33 20/0/33 19/0/33
f 8/0/34 7/0/34 20/0/34
f 7/0/35 16/0/35 20/0/35
f 9/0/36 26/0/36 39/0/36
f 9/0/37 5/0/37 26/0/37
f 5/0/38 19/0/38 26/0/38
f 12/0/39 22/0/39 27/0/39
f 12/0/40 11/0/40 22/0/40
f 11/0/41 4/0/41 22/0/41
f 15/0/42 23/0/42 30/0/42
f 15/0/43 14/0/43 23/0/43
f 14/0/44 10/0/44 23/0/44
f 18/0/45 24/0/45 33/0/45
f 18/0/46 17/0/46 24/0/46
f 17/0/47 13/0/47 24/0/47
f 21/0/48 25/0/48 36/0/48
f 21/0/49 20/0/49 25/0/49
f 20/0/50 16/0/50 25/0/50
f 22/0/51 28/0/51 27/0/51
f 22/0/52 9/0/52 28/0/52
f 9/0/53 39/0/53 28/0/53
f 23/0/54 31/0/54 30/0/54
f 23/0/55 12/0/55 31/0/55
f 12/0/56 27/0/56 31/0/56
f 24/0/57 34/0/57 33/0/57
f 24/0/58 15/0/58 34/0/58
f 15/0/59 30/0/59 34/0/59
f 25/0/60 37/0/60 36/0/60
f 25/0/61 18/0/61 37/0/61
f 18/0/62 33/0/62 37/0/62
f 26/0/63 40/0/63 39/0/63
f 26/0/64 21/0/64 40/0/64
f 21/0/65 36/0/65 40/0/65
f 29/0/66 41/0/66 42/0/66
f 29/0/67 28/0/67 41/0/67
f 28/0/68 39/0/68 41/0/68
f 32/0/69 29/0/69 42/0/69
f 32/0/70 31/0/70 29/0/70
f 31/0/71 27/0/71 29/0/71
f 35/0/72 32/0/72 42/0/72
f 35/0/73 34/0/73 32/0/73
f 34/0/74 30/0/74 32/0/74
f 38/0/75 35/0/75 42/0/75
f 38/0/76 37/0/76 35/0/76
f 37/0/77 33/0/77 35/0/77
f 41/0/78 38/0/78 42/0/78
f 41/0/79 40/0/79 38/0/79
f 40/0/80 36/0/80 38/0/80
