# Blender v2.80 (sub 75) OBJ File: ''
# www.blender.org
mtllib singleTree.mtl
o SapinHiver.015_Cylinder.000
v 0.832514 -0.305848 -2.732461
v 0.781584 0.955975 -2.741042
v 0.941628 0.962837 -2.681927
v 0.992558 -0.298986 -2.673347
v 1.012997 0.966772 -2.526857
v 1.063927 -0.295051 -2.518277
v 0.953885 0.965476 -2.366671
v 1.004815 -0.296348 -2.358090
v 0.798918 0.959707 -2.295203
v 0.849848 -0.302116 -2.286622
v 0.638875 0.952845 -2.354318
v 0.689804 -0.308978 -2.345737
v 0.567505 0.948910 -2.509387
v 0.618435 -0.312913 -2.500807
v 0.626618 0.950207 -2.669574
v 0.677547 -0.311617 -2.660993
v 0.659826 3.939516 -2.795425
v 0.638831 4.699447 -2.553808
v 0.646184 4.699762 -2.551092
v 0.827769 4.039985 -2.714024
v 0.649463 4.699943 -2.543968
v 0.926630 3.951963 -2.548484
v 0.646747 4.699883 -2.536608
v 0.840862 4.042803 -2.377262
v 0.639627 4.699618 -2.533324
v 0.679811 3.943818 -2.281400
v 0.632274 4.699303 -2.536041
v 0.504362 4.029311 -2.364066
v 0.628995 4.699122 -2.543165
v 0.413006 3.931369 -2.528342
v 0.491269 4.026493 -2.700828
v 0.631711 4.699182 -2.550525
v 0.767824 0.791130 -3.260491
v 1.260735 0.905772 -3.023825
v 1.539609 0.827138 -2.546163
v 1.298610 0.913925 -2.049673
v 0.825634 0.803575 -1.773571
v 0.325217 0.874896 -2.011501
v 0.053849 0.767566 -2.487899
v 0.287342 0.866743 -2.985654
v 0.757505 0.758630 -3.556840
v 0.746567 1.426937 -3.152464
v 1.164428 1.538305 -2.951657
v 1.448528 0.881911 -3.225520
v 0.737591 1.394725 -3.414299
v 0.725310 2.062743 -3.044438
v 1.068121 2.170839 -2.879488
v 1.330505 1.513728 -3.129854
v 0.718237 2.030942 -3.257320
v 0.704054 2.698550 -2.936411
v 0.971813 2.803372 -2.807319
v 1.203399 2.145246 -3.024357
v 0.698819 2.667144 -3.102021
v 0.682797 3.334357 -2.828385
v 0.875506 3.435906 -2.735151
v 1.077349 2.776798 -2.920004
v 0.679099 3.303282 -2.954467
v 0.661541 3.970163 -2.720358
v 0.779199 4.068440 -2.662982
v 0.956173 3.408510 -2.820925
v 1.401728 1.457504 -2.546078
v 1.837143 0.809001 -2.557579
v 1.263848 2.087869 -2.545993
v 1.664775 1.437984 -2.556142
v 1.125967 2.718235 -2.545908
v 1.477980 2.066388 -2.554139
v 0.988087 3.348600 -2.545823
v 1.292863 2.694860 -2.552202
v 0.850206 3.978966 -2.545738
v 1.115486 3.323642 -2.550568
v 1.196579 1.545226 -2.124708
v 1.501510 0.893317 -1.862796
v 1.094549 2.176528 -2.199743
v 1.376006 1.523523 -1.959556
v 0.992518 2.807830 -2.274778
v 1.240682 2.153271 -2.065406
v 0.890488 3.439131 -2.349813
v 1.106501 2.783073 -2.170198
v 0.788457 4.070433 -2.424847
v 0.977588 3.413120 -2.270114
v 0.795642 1.437501 -1.890232
v 0.838376 0.776038 -1.476814
v 0.765649 2.071427 -2.006893
v 0.807041 1.409676 -1.627989
v 0.735657 2.705353 -2.123554
v 0.775146 2.043192 -1.793602
v 0.705665 3.339279 -2.240215
v 0.743316 2.676723 -1.957536
v 0.675673 3.973206 -2.356876
v 0.711786 3.310318 -2.113724
v 0.370275 1.512095 -2.092304
v 0.139847 0.838720 -1.809398
v 0.415333 2.149294 -2.173107
v 0.206621 1.476636 -1.913699
v 0.460392 2.786494 -2.253910
v 0.282478 2.114852 -2.027830
v 0.505450 3.423693 -2.334713
v 0.357279 2.753033 -2.140817
v 0.550508 4.060893 -2.415516
v 0.427206 3.391053 -2.248531
v 0.140480 1.406933 -2.496618
v -0.241262 0.725667 -2.476074
v 0.227112 2.046301 -2.505337
v -0.120143 1.366417 -2.486146
v 0.313744 2.685668 -2.514057
v 0.015404 2.007746 -2.496784
v 0.400375 3.325036 -2.522776
v 0.149271 2.649007 -2.507355
v 0.487007 3.964403 -2.531496
v 0.275399 3.289958 -2.517624
v 0.086865 0.827315 -3.172123
v 0.338124 1.505174 -2.919253
v 0.161120 1.466841 -3.083997
v 0.388905 2.143605 -2.852853
v 0.245195 2.106826 -2.986781
v 0.439687 2.782037 -2.786452
v 0.328127 2.746757 -2.890624
v 0.490468 3.420468 -2.720052
v 0.405791 3.386443 -2.799342
v 0.541250 4.058899 -2.653651
vn 0.3462 0.0076 -0.9381
vn 0.9076 0.0338 -0.4186
vn 0.9373 0.0402 0.3462
vn 0.4180 0.0230 0.9082
vn -0.3462 -0.0076 0.9381
vn -0.9076 -0.0338 0.4186
vn -0.0403 0.9992 -0.0068
vn -0.4180 -0.0230 -0.9082
vn -0.9373 -0.0402 -0.3462
vn 0.0403 -0.9992 0.0068
vn 0.2655 0.2988 -0.9166
vn 0.8777 0.3273 -0.3501
vn 0.9020 0.3326 0.2754
vn 0.3357 0.3139 0.8881
vn -0.2893 0.2888 0.9126
vn -0.9014 0.2603 0.3461
vn -0.3594 0.2737 -0.8921
vn -0.9257 0.2550 -0.2794
vn -0.0403 0.9992 -0.0067
vn 0.3014 0.4972 -0.8136
vn 0.3051 0.4656 -0.8308
vn 0.3117 0.4170 -0.8538
vn 0.3148 0.3666 -0.8755
vn 0.3089 0.3223 -0.8948
vn 0.7624 0.5187 -0.3869
vn 0.7808 0.4878 -0.3905
vn 0.8056 0.4401 -0.3966
vn 0.8296 0.3906 -0.3991
vn 0.8515 0.3476 -0.3926
vn 0.7898 0.5246 0.3179
vn 0.8084 0.4937 0.3205
vn 0.8337 0.4461 0.3255
vn 0.8578 0.3967 0.3269
vn 0.8792 0.3535 0.3195
vn 0.3633 0.5106 0.7793
vn 0.3684 0.4792 0.7967
vn 0.3768 0.4310 0.8199
vn 0.3816 0.3810 0.8422
vn 0.3772 0.3370 0.8626
vn -0.3409 0.4823 0.8069
vn -0.3421 0.4507 0.8245
vn -0.3448 0.4021 0.8482
vn -0.3438 0.3519 0.8706
vn -0.3344 0.3084 0.8905
vn -0.8019 0.4608 0.3803
vn -0.8177 0.4285 0.3843
vn -0.8387 0.3791 0.3911
vn -0.8586 0.3279 0.3942
vn -0.8769 0.2831 0.3884
vn -0.4029 0.4690 -0.7860
vn -0.4054 0.4371 -0.8029
vn -0.4098 0.3881 -0.8255
vn -0.4106 0.3375 -0.8471
vn -0.4027 0.2937 -0.8669
vn -0.8293 0.4549 -0.3245
vn -0.8454 0.4226 -0.3267
vn -0.8668 0.3730 -0.3311
vn -0.8868 0.3218 -0.3317
vn -0.9046 0.2772 -0.3238
vn 0.2720 -0.7069 0.6529
vn -0.6354 -0.7492 -0.1869
vn -0.6185 -0.7456 0.2482
vn 0.2210 -0.7179 -0.6602
vn -0.2138 -0.7353 -0.6431
vn 0.6936 -0.6930 0.1967
vn -0.1628 -0.7243 0.6700
vn 0.6767 -0.6966 -0.2384
vn 0.2180 -0.8515 0.4769
vn -0.4488 -0.8826 -0.1401
vn -0.4360 -0.8798 0.1893
vn 0.1808 -0.8595 -0.4781
vn -0.1484 -0.8727 -0.4652
vn 0.5184 -0.8416 0.1519
vn -0.1112 -0.8647 0.4898
vn 0.5055 -0.8443 -0.1776
vn 0.1741 -0.9095 0.3775
vn -0.3435 -0.9337 -0.1015
vn -0.3340 -0.9316 0.1435
vn 0.1448 -0.9158 -0.3746
vn -0.1000 -0.9256 -0.3650
vn 0.4176 -0.9015 0.1140
vn -0.0707 -0.9193 0.3871
vn 0.4080 -0.9035 -0.1310
vn 0.1494 -0.9403 0.3057
vn -0.2685 -0.9598 -0.0812
vn -0.2608 -0.9582 0.1178
vn 0.1259 -0.9454 -0.3006
vn -0.0730 -0.9534 -0.2928
vn 0.3450 -0.9339 0.0941
vn -0.0494 -0.9483 0.3135
vn 0.3372 -0.9356 -0.1049
vn 0.1324 -0.9577 0.2555
vn -0.2164 -0.9740 -0.0674
vn -0.2099 -0.9726 0.1003
vn 0.1128 -0.9619 -0.2490
vn -0.0547 -0.9686 -0.2424
vn 0.2942 -0.9523 0.0805
vn -0.0351 -0.9644 0.2621
vn 0.2877 -0.9538 -0.0872
vn 0.1175 -0.9675 0.2239
vn -0.1833 -0.9815 -0.0546
vn -0.1779 -0.9804 0.0850
vn 0.1004 -0.9712 -0.2161
vn -0.0391 -0.9768 -0.2107
vn 0.2618 -0.9627 0.0678
vn -0.0219 -0.9731 0.2294
vn 0.2564 -0.9639 -0.0718
vn 0.3179 0.3089 -0.8964
vn 0.8530 0.3338 -0.4011
vn 0.8814 0.3399 0.3281
vn 0.3864 0.3236 0.8637
vn -0.3423 0.2944 0.8923
vn -0.8774 0.2694 0.3970
vn -0.4106 0.2796 -0.8679
vn -0.9057 0.2633 -0.3321
vn 0.0512 -0.9364 0.3471
vn -0.3025 -0.9529 0.0197
vn 0.0247 -0.9421 -0.3343
vn 0.3783 -0.9256 -0.0070
vn -0.0404 0.9992 -0.0068
vn -0.0403 0.9992 -0.0066
vn -0.0404 0.9992 -0.0069
vn 0.2775 0.4698 -0.8380
vn 0.2748 0.4362 -0.8569
vn 0.2733 0.3866 -0.8808
vn 0.2620 0.3341 -0.9054
vn 0.2195 0.2824 -0.9338
vn 0.7899 0.4937 -0.3638
vn 0.8106 0.4612 -0.3610
vn 0.8370 0.4129 -0.3591
vn 0.8650 0.3623 -0.3473
vn 0.8991 0.3141 -0.3049
vn 0.8154 0.4992 0.2931
vn 0.8358 0.4666 0.2892
vn 0.8621 0.4183 0.2861
vn 0.8891 0.3675 0.2730
vn 0.9199 0.3185 0.2288
vn 0.3414 0.4835 0.8060
vn 0.3402 0.4503 0.8256
vn 0.3406 0.4011 0.8503
vn 0.3312 0.3491 0.8766
vn 0.2912 0.2978 0.9091
vn -0.3149 0.4572 0.8317
vn -0.3095 0.4242 0.8510
vn -0.3040 0.3753 0.8756
vn -0.2885 0.3242 0.9009
vn -0.2421 0.2764 0.9301
vn -0.8273 0.4333 0.3575
vn -0.8453 0.3992 0.3551
vn -0.8677 0.3490 0.3539
vn -0.8915 0.2961 0.3428
vn -0.9217 0.2447 0.3010
vn -0.3789 0.4434 -0.8123
vn -0.3749 0.4101 -0.8314
vn -0.3714 0.3608 -0.8555
vn -0.3578 0.3093 -0.8811
vn -0.3137 0.2610 -0.9129
vn -0.8528 0.4278 -0.2994
vn -0.8706 0.3938 -0.2950
vn -0.8928 0.3436 -0.2912
vn -0.9156 0.2909 -0.2774
vn -0.9424 0.2402 -0.2326
vn 0.3519 -0.8694 0.3469
vn -0.3286 -0.9011 -0.2829
vn -0.3050 -0.8960 0.3226
vn 0.3245 -0.8753 -0.3586
vn -0.2805 -0.8995 -0.3349
vn 0.3999 -0.8678 0.2950
vn -0.2531 -0.8936 0.3706
vn 0.3764 -0.8728 -0.3106
vn 0.2494 -0.9419 0.2248
vn -0.1956 -0.9627 -0.1870
vn -0.1798 -0.9593 0.2176
vn 0.2318 -0.9457 -0.2277
vn -0.1725 -0.9619 -0.2119
vn 0.2724 -0.9412 0.1999
vn -0.1549 -0.9582 0.2407
vn 0.2567 -0.9446 -0.2047
vn 0.1945 -0.9648 0.1768
vn -0.1424 -0.9806 -0.1350
vn -0.1309 -0.9781 0.1620
vn 0.1808 -0.9678 -0.1752
vn -0.1160 -0.9797 -0.1636
vn 0.2209 -0.9640 0.1482
vn -0.1023 -0.9767 0.1885
vn 0.2094 -0.9665 -0.1488
vn 0.1626 -0.9766 0.1405
vn -0.1032 -0.9890 -0.1056
vn -0.0941 -0.9871 0.1298
vn 0.1519 -0.9790 -0.1364
vn -0.0833 -0.9884 -0.1271
vn 0.1825 -0.9760 0.1189
vn -0.0726 -0.9861 0.1497
vn 0.1734 -0.9779 -0.1164
vn 0.1416 -0.9831 0.1161
vn -0.0770 -0.9933 -0.0863
vn -0.0694 -0.9917 0.1086
vn 0.1328 -0.9850 -0.1103
vn -0.0619 -0.9928 -0.1027
vn 0.1568 -0.9826 0.0997
vn -0.0531 -0.9909 0.1237
vn 0.1492 -0.9842 -0.0951
vn 0.1262 -0.9866 0.1038
vn -0.0634 -0.9954 -0.0717
vn -0.0570 -0.9940 0.0931
vn 0.1184 -0.9882 -0.0968
vn -0.0463 -0.9948 -0.0903
vn 0.1434 -0.9860 0.0852
vn -0.0385 -0.9932 0.1103
vn 0.1370 -0.9874 -0.0796
usemtl Material.011
s off
f 2//1 4//1 1//1
f 3//2 6//2 4//2
f 5//3 8//3 6//3
f 7//4 10//4 8//4
f 10//5 11//5 12//5
f 11//6 14//6 12//6
f 2//7 13//7 9//7
f 16//8 2//8 1//8
f 13//9 16//9 14//9
f 12//10 14//10 16//10
f 2//1 3//1 4//1
f 3//2 5//2 6//2
f 5//3 7//3 8//3
f 7//4 9//4 10//4
f 10//5 9//5 11//5
f 11//6 13//6 14//6
f 5//7 3//7 2//7
f 2//7 15//7 13//7
f 13//7 11//7 9//7
f 9//7 7//7 5//7
f 5//7 2//7 9//7
f 16//8 15//8 2//8
f 13//9 15//9 16//9
f 16//10 1//10 8//10
f 1//10 4//10 8//10
f 4//10 6//10 8//10
f 8//10 10//10 16//10
f 10//10 12//10 16//10
usemtl Material.010
f 18//11 20//11 17//11
f 20//12 21//12 22//12
f 21//13 24//13 22//13
f 24//14 25//14 26//14
f 25//15 28//15 26//15
f 28//16 29//16 30//16
f 31//17 18//17 17//17
f 29//18 31//18 30//18
f 34//10 36//10 38//10
f 25//19 23//19 21//19
f 42//20 44//20 41//20
f 46//21 48//21 45//21
f 50//22 52//22 49//22
f 54//23 56//23 53//23
f 58//24 60//24 57//24
f 44//25 61//25 62//25
f 48//26 63//26 64//26
f 52//27 65//27 66//27
f 56//28 67//28 68//28
f 60//29 69//29 70//29
f 61//30 72//30 62//30
f 63//31 74//31 64//31
f 65//32 76//32 66//32
f 67//33 78//33 68//33
f 69//34 80//34 70//34
f 72//35 81//35 82//35
f 74//36 83//36 84//36
f 76//37 85//37 86//37
f 78//38 87//38 88//38
f 80//39 89//39 90//39
f 81//40 92//40 82//40
f 83//41 94//41 84//41
f 85//42 96//42 86//42
f 87//43 98//43 88//43
f 89//44 100//44 90//44
f 92//45 101//45 102//45
f 94//46 103//46 104//46
f 96//47 105//47 106//47
f 98//48 107//48 108//48
f 100//49 109//49 110//49
f 111//50 42//50 41//50
f 113//51 46//51 45//51
f 115//52 50//52 49//52
f 117//53 54//53 53//53
f 119//54 58//54 57//54
f 101//55 111//55 102//55
f 103//56 113//56 104//56
f 105//57 115//57 106//57
f 107//58 117//58 108//58
f 109//59 119//59 110//59
f 58//60 20//60 59//60
f 20//61 69//61 59//61
f 69//62 24//62 79//62
f 24//63 89//63 79//63
f 89//64 28//64 99//64
f 28//65 109//65 99//65
f 31//66 58//66 120//66
f 109//67 31//67 120//67
f 54//68 60//68 55//68
f 60//69 67//69 55//69
f 67//70 80//70 77//70
f 80//71 87//71 77//71
f 87//72 100//72 97//72
f 100//73 107//73 97//73
f 119//74 54//74 118//74
f 107//75 119//75 118//75
f 50//76 56//76 51//76
f 56//77 65//77 51//77
f 65//78 78//78 75//78
f 78//79 85//79 75//79
f 85//80 98//80 95//80
f 98//81 105//81 95//81
f 117//82 50//82 116//82
f 105//83 117//83 116//83
f 46//84 52//84 47//84
f 52//85 63//85 47//85
f 63//86 76//86 73//86
f 76//87 83//87 73//87
f 83//88 96//88 93//88
f 96//89 103//89 93//89
f 115//90 46//90 114//90
f 103//91 115//91 114//91
f 42//92 48//92 43//92
f 48//93 61//93 43//93
f 61//94 74//94 71//94
f 74//95 81//95 71//95
f 81//96 94//96 91//96
f 94//97 101//97 91//97
f 113//98 42//98 112//98
f 101//99 113//99 112//99
f 33//100 44//100 34//100
f 44//101 35//101 34//101
f 35//102 72//102 36//102
f 72//103 37//103 36//103
f 37//104 92//104 38//104
f 92//105 39//105 38//105
f 111//106 33//106 40//106
f 39//107 111//107 40//107
f 18//108 19//108 20//108
f 20//109 19//109 21//109
f 21//110 23//110 24//110
f 24//111 23//111 25//111
f 25//112 27//112 28//112
f 28//113 27//113 29//113
f 31//114 32//114 18//114
f 29//115 32//115 31//115
f 40//116 33//116 34//116
f 34//117 35//117 36//117
f 36//118 37//118 38//118
f 38//119 39//119 40//119
f 40//10 34//10 38//10
f 21//120 19//120 29//120
f 19//19 18//19 29//19
f 18//121 32//121 29//121
f 29//122 27//122 21//122
f 27//19 25//19 21//19
f 42//123 43//123 44//123
f 46//124 47//124 48//124
f 50//125 51//125 52//125
f 54//126 55//126 56//126
f 58//127 59//127 60//127
f 44//128 43//128 61//128
f 48//129 47//129 63//129
f 52//130 51//130 65//130
f 56//131 55//131 67//131
f 60//132 59//132 69//132
f 61//133 71//133 72//133
f 63//134 73//134 74//134
f 65//135 75//135 76//135
f 67//136 77//136 78//136
f 69//137 79//137 80//137
f 72//138 71//138 81//138
f 74//139 73//139 83//139
f 76//140 75//140 85//140
f 78//141 77//141 87//141
f 80//142 79//142 89//142
f 81//143 91//143 92//143
f 83//144 93//144 94//144
f 85//145 95//145 96//145
f 87//146 97//146 98//146
f 89//147 99//147 100//147
f 92//148 91//148 101//148
f 94//149 93//149 103//149
f 96//150 95//150 105//150
f 98//151 97//151 107//151
f 100//152 99//152 109//152
f 111//153 112//153 42//153
f 113//154 114//154 46//154
f 115//155 116//155 50//155
f 117//156 118//156 54//156
f 119//157 120//157 58//157
f 101//158 112//158 111//158
f 103//159 114//159 113//159
f 105//160 116//160 115//160
f 107//161 118//161 117//161
f 109//162 120//162 119//162
f 58//163 17//163 20//163
f 20//164 22//164 69//164
f 69//165 22//165 24//165
f 24//166 26//166 89//166
f 89//167 26//167 28//167
f 28//168 30//168 109//168
f 31//169 17//169 58//169
f 109//170 30//170 31//170
f 54//171 57//171 60//171
f 60//172 70//172 67//172
f 67//173 70//173 80//173
f 80//174 90//174 87//174
f 87//175 90//175 100//175
f 100//176 110//176 107//176
f 119//177 57//177 54//177
f 107//178 110//178 119//178
f 50//179 53//179 56//179
f 56//180 68//180 65//180
f 65//181 68//181 78//181
f 78//182 88//182 85//182
f 85//183 88//183 98//183
f 98//184 108//184 105//184
f 117//185 53//185 50//185
f 105//186 108//186 117//186
f 46//187 49//187 52//187
f 52//188 66//188 63//188
f 63//189 66//189 76//189
f 76//190 86//190 83//190
f 83//191 86//191 96//191
f 96//192 106//192 103//192
f 115//193 49//193 46//193
f 103//194 106//194 115//194
f 42//195 45//195 48//195
f 48//196 64//196 61//196
f 61//197 64//197 74//197
f 74//198 84//198 81//198
f 81//199 84//199 94//199
f 94//200 104//200 101//200
f 113//201 45//201 42//201
f 101//202 104//202 113//202
f 33//203 41//203 44//203
f 44//204 62//204 35//204
f 35//205 62//205 72//205
f 72//206 82//206 37//206
f 37//207 82//207 92//207
f 92//208 102//208 39//208
f 111//209 41//209 33//209
f 39//210 102//210 111//210
