# Blender v2.80 (sub 75) OBJ File: ''
# www.blender.org
mtllib treeWithoutLeaves.mtl
o Arbre_Automne_Cylinder.003
v 0.020758 1.936622 -0.231644
v 0.182052 1.904646 -0.164834
v 0.020758 1.887660 -0.231644
v 0.248862 1.934948 -0.003540
v 0.248862 1.886114 -0.003540
v 0.493560 1.964850 0.469261
v 0.868678 2.618556 0.770875
v 0.879538 2.595804 0.814670
v 0.849061 2.559809 0.832811
v 0.387983 2.007055 0.512992
v 0.020758 1.969473 0.224563
v -0.140535 1.953705 0.157753
v 0.020758 1.895350 0.224563
v -0.207345 1.909783 -0.003540
v -0.207345 1.834979 -0.003540
v 0.064330 2.689128 -0.085912
v 0.484018 3.445953 -0.053669
v 0.139417 2.582978 -0.120031
v -0.137558 1.897664 -0.143838
v -0.185506 -0.065052 0.202725
v -0.270944 -0.065052 -0.003540
v -0.185506 -0.065052 -0.209805
v 0.531083 3.428697 -0.003540
v 0.436953 3.463209 -0.003540
v 0.450738 3.458155 -0.038987
v 0.064330 2.689128 0.078832
v 0.033228 2.701810 -0.003540
v 0.139417 2.658511 0.112951
v 0.450738 3.458155 0.031906
v 0.214504 2.627894 0.078832
v 0.484018 3.445953 0.046589
v 0.517298 3.433751 0.031906
v 0.214504 2.641739 -0.085912
v 0.245607 2.539680 -0.003540
v 0.517298 3.433751 -0.038987
v 0.009000 2.475111 -0.086994
v 0.108508 2.433850 -0.149105
v -0.029439 2.519377 -0.003540
v 0.108508 2.508898 0.142025
v 0.010965 2.486170 0.099390
v 0.206051 2.447391 0.099390
v 0.495781 2.392725 -0.394401
v 0.800314 2.976703 -0.658981
v 0.526381 2.425092 -0.318250
v 0.421906 2.438624 -0.425944
v 0.792344 2.980377 -0.680215
v 0.020758 -0.065052 -0.295242
v 0.182052 0.261615 -0.164834
v 0.227023 -0.065052 -0.209805
v 0.248862 0.261615 -0.003540
v 0.312461 -0.065052 -0.003540
v 0.182052 0.261615 0.157753
v 0.227023 -0.065052 0.202725
v 0.020758 0.261615 0.224563
v 0.020758 -0.065052 0.288162
v -0.140535 0.261615 0.157753
v -0.140535 0.261615 -0.164834
v -0.207345 0.261615 -0.003540
v 0.072135 2.257931 -0.529470
v 0.034694 2.482642 -0.976444
v -0.008854 2.245710 -0.471134
v -1.029676 2.637912 -0.015093
v -1.461714 2.836787 -0.039210
v -1.469006 2.847762 -0.021063
v -1.461714 2.836787 -0.002916
v -1.008190 2.605573 0.038377
v -0.140535 1.976734 0.157753
v 0.080088 2.254884 0.168757
v -0.038103 2.299555 0.118292
v 0.182052 2.090138 0.157753
v 0.247234 2.275080 -0.003540
v 0.198278 2.281421 0.118292
v 0.198278 2.223297 -0.125373
v 0.087766 2.470480 -0.984705
v 0.061647 2.486708 -0.995857
v -1.486923 2.774388 -0.021063
v -1.476971 2.780619 -0.045088
v -1.476971 2.780619 0.002962
v -1.053146 2.440075 0.055696
v -1.008190 2.605573 -0.068564
v -1.082468 2.421715 -0.015093
v -1.053146 2.440075 -0.085882
v -0.525486 2.755757 0.105783
v -0.630427 3.075042 0.288186
v -0.627612 3.071934 0.309578
v -0.630162 3.049002 0.316090
v -0.532026 2.696924 0.122490
v -0.612637 2.432913 0.075505
v -0.854936 2.280813 0.080357
v -0.684297 2.179132 0.103111
v -0.613746 2.433024 -0.083966
v -0.854936 2.280813 -0.104961
v -0.796091 2.497442 -0.082292
v -0.731035 2.149866 -0.009726
v -0.683188 2.179021 -0.114744
v -0.893316 2.256780 -0.012302
v 0.020758 1.701564 -0.231644
v 0.156212 0.981465 -0.138994
v 0.020758 0.981465 -0.195101
v 0.248862 1.702949 -0.003540
v 0.212319 0.981465 -0.003540
v 0.182052 1.588473 0.157753
v 0.156212 0.954390 0.131914
v 0.020758 0.981465 0.188021
v -0.140535 1.563590 0.157753
v -0.114696 0.981465 0.131914
v -0.207345 1.567123 -0.003540
v -0.170802 0.966330 -0.003540
v -0.140535 1.668069 -0.164834
v -0.114696 0.981465 -0.138994
v 0.809025 2.638476 0.770875
v 0.806320 2.620254 0.814670
v 0.821583 2.634282 0.770875
v 0.789408 2.579729 0.832811
v 0.801966 2.575535 0.832811
v 0.387983 2.126747 0.512992
v 0.537291 2.158665 0.363685
v 0.537291 2.126747 0.363685
v 0.493560 2.276261 0.469261
v 0.786795 2.626774 0.814670
v 0.537291 2.007055 0.363685
v 0.020758 1.613874 0.224563
v 0.387983 2.158665 0.512992
v 0.793610 3.011069 -0.656739
v 0.800049 3.023219 -0.628952
v 0.800187 2.998986 -0.644597
v 0.782763 3.039425 -0.641061
v 0.794986 3.044449 -0.631207
v 0.458990 2.664754 -0.391062
v 0.777732 3.016216 -0.661677
v 0.439670 2.546946 -0.409234
v 0.505923 2.688706 -0.369736
v 0.525893 2.526932 -0.318250
v 0.525363 2.637691 -0.318250
v 0.246455 2.401830 -0.003540
v -0.824215 2.539772 -0.012302
v -0.796091 2.497442 0.057688
v -0.087059 2.351634 -0.003540
v -0.601985 2.484461 -0.009726
v -0.041874 2.278327 -0.087989
v -0.136764 1.954481 -0.138239
v -0.674067 3.086047 0.298990
v -0.680798 3.082039 0.318151
v -0.674067 3.063208 0.323499
v -0.644668 2.733368 0.141499
v -0.661936 2.781680 0.127779
v -0.644668 2.791963 0.078621
v -0.532707 2.763729 0.050903
v 0.020758 0.261615 -0.231644
v 0.182052 1.703327 -0.164834
v -0.293975 1.897305 0.508095
v -0.623049 2.079562 0.918050
v -0.235052 1.889225 0.607172
v -0.677524 2.047788 0.904044
v -0.657044 2.083881 0.906277
v -0.657044 2.030730 0.961701
v -0.623049 2.041213 0.958040
v -0.677524 2.011294 0.942099
v -0.438749 1.819972 0.677750
v -0.475352 1.747645 0.608859
v -0.375949 1.800743 0.492373
v -0.339510 1.833427 0.729582
v 0.048536 2.407128 -1.008190
v 0.084180 2.411926 -0.993426
v 0.150620 2.209167 -0.495959
v 0.013725 2.411075 -0.987548
v -0.071866 2.030659 -0.504503
v 0.032737 2.018800 -0.566528
v 0.139845 2.033216 -0.522163
v 0.080088 2.296730 -0.175837
v 0.182052 1.958331 -0.164834
v 0.131677 2.522341 0.644024
v 0.116794 2.751467 1.129392
v 0.154846 2.760334 1.146024
v 0.192898 2.736339 1.129392
v 0.199474 2.479589 0.614391
v 0.773105 2.994875 -0.680633
v 0.143759 2.661241 1.156453
v 0.097653 2.678668 1.136766
v 0.189866 2.671594 1.136766
v 0.194072 2.364232 0.627529
v 0.063880 2.506543 0.614391
v 0.111923 2.345787 0.662605
v 0.029775 2.376836 0.627529
vn 0.3827 0.0000 -0.9239
vn 0.9239 0.0000 -0.3827
vn 0.9258 0.0026 -0.3779
vn 0.8667 -0.3212 -0.3818
vn 0.1120 -0.5660 0.8167
vn -0.3827 0.0000 0.9239
vn -0.9239 0.0000 0.3827
vn -0.2130 0.1592 -0.9640
vn -0.4850 0.0000 -0.8745
vn -0.8953 -0.0000 -0.4454
vn -0.0000 -1.0000 -0.0000
vn 0.3442 0.9389 0.0000
vn -0.8176 0.4339 -0.3786
vn -0.8183 0.4340 -0.3769
vn -0.8172 0.4338 -0.3796
vn -0.8176 0.4339 0.3786
vn -0.8182 0.4340 0.3769
vn -0.8187 0.4341 0.3759
vn -0.3259 0.2200 0.9194
vn -0.3269 0.2204 0.9190
vn -0.3275 0.2206 0.9187
vn 0.3770 -0.0878 0.9220
vn 0.3798 -0.0888 0.9208
vn 0.3816 -0.0894 0.9200
vn 0.8720 -0.3054 0.3827
vn 0.7660 -0.2460 -0.5940
vn 0.3747 -0.0886 -0.9229
vn -0.4323 0.2580 -0.8640
vn -0.8369 0.2189 -0.5016
vn -0.8759 0.3009 0.3771
vn -0.4314 0.2025 0.8791
vn 0.4404 0.0826 0.8940
vn 0.4415 0.0814 0.8936
vn 0.4401 0.0828 0.8941
vn 0.9340 -0.0010 0.3573
vn 0.9320 0.0047 0.3624
vn 0.9344 -0.0032 0.3562
vn 0.8541 -0.5039 -0.1290
vn 0.0835 -0.4696 -0.8789
vn 0.3766 0.1770 -0.9093
vn 0.9093 0.1770 -0.3766
vn 0.9093 0.1770 0.3766
vn 0.3766 0.1770 0.9093
vn -0.3766 0.1770 0.9093
vn -0.9093 0.1770 0.3766
vn -0.3766 0.1770 -0.9093
vn -0.9093 0.1770 -0.3766
vn 0.1764 0.8853 0.4303
vn 0.4081 0.8445 -0.3468
vn 0.3996 0.8466 0.3515
vn 0.3996 0.8466 0.3514
vn -0.3145 0.2129 0.9251
vn 0.3001 0.1226 0.9460
vn 0.9274 -0.0006 0.3741
vn 0.9260 0.0002 0.3774
vn 0.9300 0.0029 0.3675
vn 0.9245 0.0011 -0.3812
vn 0.9272 0.0044 -0.3745
vn 0.3509 0.8438 0.4060
vn -0.9106 0.2792 -0.3048
vn -0.8570 0.2093 0.4709
vn -0.0329 0.1129 0.9931
vn -0.0099 0.1067 -0.9942
vn -0.5919 -0.6860 -0.4231
vn -0.5987 -0.6794 0.4242
vn 0.9345 0.3485 -0.0723
vn 0.9057 0.0196 0.4235
vn -0.0569 0.1218 0.9909
vn -0.0549 0.1191 0.9914
vn -0.0462 0.1212 0.9916
vn 0.0252 0.0973 -0.9949
vn -0.4782 -0.7655 -0.4304
vn -0.5070 -0.7598 0.4071
vn 0.3822 -0.0468 -0.9229
vn 0.3827 -0.0466 -0.9227
vn 0.3823 -0.0468 -0.9229
vn 0.9229 -0.0467 -0.3823
vn 0.9228 -0.0467 -0.3823
vn 0.9263 -0.0530 0.3731
vn 0.3736 -0.0532 0.9261
vn 0.3744 -0.0534 0.9257
vn 0.3731 -0.0530 0.9263
vn -0.3820 -0.0579 0.9223
vn -0.9222 -0.0575 0.3825
vn -0.9208 -0.0565 0.3859
vn -0.9202 -0.0560 0.3874
vn -0.3801 -0.0486 -0.9237
vn -0.3759 -0.0475 -0.9254
vn -0.3822 -0.0491 -0.9228
vn -0.9202 -0.0560 -0.3874
vn 0.2926 0.8763 0.3827
vn 0.1212 0.3630 0.9239
vn -0.1578 -0.4724 0.8671
vn 0.8199 0.0000 -0.5725
vn -0.8272 0.1616 0.5382
vn -0.0393 0.6594 -0.7508
vn 0.7501 -0.6597 0.0470
vn 0.1831 -0.6869 0.7033
vn -0.6177 -0.0000 0.7864
vn -0.6136 -0.0000 0.7896
vn 0.7864 0.0000 -0.6177
vn -0.6707 0.6967 0.2544
vn 0.2197 0.7469 -0.6276
vn 0.9289 0.2016 -0.3108
vn 0.9312 0.2015 -0.3039
vn 0.3724 0.5541 -0.7445
vn -0.7605 0.2190 -0.6113
vn -0.5528 0.7371 0.3887
vn 0.5021 0.2089 0.8392
vn 0.8875 -0.2464 0.3895
vn 0.5693 -0.8137 0.1171
vn -0.1756 -0.7337 -0.6563
vn -0.6502 0.2730 -0.7090
vn -0.4854 0.8105 -0.3278
vn 0.4223 0.7186 0.5525
vn 0.7470 0.0039 0.6648
vn 0.7470 0.0042 0.6648
vn 0.7469 0.0037 0.6649
vn -0.0329 0.1128 0.9931
vn 0.2102 0.7886 -0.5778
vn 0.2101 0.7903 -0.5756
vn 0.2102 0.7877 -0.5791
vn 0.1916 0.9280 0.3197
vn -0.0487 0.1364 0.9895
vn 0.0238 0.1138 -0.9932
vn 0.0235 0.1139 -0.9932
vn 0.0144 0.1164 -0.9931
vn -0.3549 -0.8158 -0.4567
vn -0.3893 -0.8395 0.3790
vn 0.2219 0.9359 0.2737
vn 0.2368 0.2409 0.9412
vn -0.0088 -0.4837 0.8752
vn -0.9229 -0.2457 0.2963
vn -0.9435 0.1332 -0.3036
vn -0.0482 0.5959 -0.8016
vn 0.9660 -0.2056 -0.1570
vn 0.9577 -0.2832 -0.0516
vn -0.1735 -0.2289 0.9579
vn -0.6428 -0.0123 0.7659
vn -0.5477 0.6001 -0.5830
vn -0.1237 0.4006 -0.9079
vn 0.3823 0.0468 -0.9229
vn 0.9229 0.0468 -0.3823
vn 0.9203 0.0472 0.3882
vn 0.9220 0.0482 0.3842
vn 0.9228 0.0487 0.3822
vn 0.3842 0.0482 0.9220
vn 0.3883 0.0472 0.9203
vn 0.3822 0.0487 0.9228
vn -0.3823 0.0468 0.9229
vn -0.9242 0.0471 0.3789
vn -0.9233 0.0477 0.3811
vn -0.9228 0.0479 0.3822
vn -0.3823 0.0468 -0.9229
vn -0.9233 0.0477 -0.3811
vn -0.9242 0.0471 -0.3789
vn -0.9228 0.0479 -0.3822
vn 0.3493 0.9277 -0.1321
vn -0.5889 0.3783 -0.7142
vn -0.3968 0.0887 -0.9136
vn -0.9239 0.0000 -0.3827
vn -0.1644 -0.4924 0.8547
vn 0.7756 0.0000 -0.6312
vn -0.6169 -0.0000 0.7871
vn -0.1464 0.7140 0.6847
vn -0.8030 0.4301 0.4125
vn 0.1643 -0.7226 0.6714
vn 0.2780 -0.6566 0.7011
vn -0.7773 0.0889 -0.6228
vn 0.7358 0.4888 0.4687
vn 0.0517 0.9974 0.0506
vn -0.7273 0.6522 -0.2136
vn -0.3458 -0.9302 0.1229
vn -0.0856 -0.9122 0.4007
vn -0.9468 0.0000 -0.3219
vn 0.7819 -0.1229 0.6112
vn -0.5918 0.2178 -0.7761
vn 0.3669 0.1150 -0.9231
vn 0.9883 -0.0385 -0.1477
vn -0.9605 0.2743 0.0458
vn -0.4338 -0.6689 -0.6037
vn -0.4338 -0.6689 -0.6036
vn 0.3489 -0.7099 -0.6117
vn -0.2195 0.9703 -0.1015
vn 0.5563 0.8246 -0.1030
vn 0.9912 -0.0420 -0.1259
vn -0.9496 0.2948 -0.1069
vn -0.2483 -0.9387 -0.2392
vn 0.2209 -0.9490 -0.2250
vn -0.7783 0.2042 -0.5937
vn -0.8539 0.2933 0.4298
vn -0.0238 0.9038 -0.4274
vn 0.3488 0.8405 -0.4146
vn 0.9284 0.0047 0.3717
vn 0.9306 0.2015 -0.3056
vn 0.4225 0.5396 -0.7283
vn -0.7756 0.2185 -0.5922
vn 0.8628 -0.2707 0.4269
vn -0.6393 0.2727 -0.7190
vn 0.7468 0.0039 0.6650
vn 0.7468 0.0036 0.6650
vn -0.3279 0.1801 0.9274
vn 0.4251 0.0476 0.9039
vn 0.9985 -0.0429 0.0341
vn -0.9674 0.2523 -0.0206
vn 0.3822 -0.7897 0.4798
vn -0.4838 -0.7231 0.4931
vn -0.2203 0.9753 -0.0159
vn -0.2203 0.9753 -0.0160
vn 0.5181 0.8540 -0.0468
vn 0.9989 -0.0450 0.0156
vn -0.9611 0.2617 0.0884
vn 0.2795 -0.9473 0.1564
vn -0.4172 -0.8886 0.1905
vn 0.9239 0.0002 -0.3827
vn 0.8329 -0.5379 0.1300
vn 0.7934 -0.5824 0.1773
vn -0.3253 0.2196 -0.9198
vn -0.5002 0.0918 -0.8610
vn -0.8920 0.0567 -0.4486
vn -0.8187 0.4341 -0.3759
vn -0.8171 0.4338 0.3796
vn -0.3252 0.2198 0.9197
vn 0.3752 -0.0872 0.9228
vn 0.7848 -0.2520 0.5662
vn 0.8703 -0.3101 -0.3827
vn 0.4932 -0.1308 -0.8601
vn -0.3101 0.0850 -0.9469
vn -0.8759 0.3009 -0.3771
vn -0.8634 0.2702 0.4261
vn -0.3171 0.2436 0.9166
vn 0.4417 0.0811 0.8935
vn 0.7416 -0.5565 -0.3746
vn -0.2043 -0.2980 -0.9325
vn -0.3608 0.2507 0.8983
vn 0.3571 0.1596 0.9203
vn 0.9254 0.0044 0.3790
vn -0.8570 0.2093 -0.4709
vn -0.9106 0.2792 0.3048
vn -0.0546 0.1186 0.9914
vn 0.0127 0.1169 -0.9931
vn -0.4985 -0.7664 -0.4052
vn 0.3827 -0.0467 -0.9227
vn 0.9228 -0.0467 -0.3824
vn 0.9343 -0.0473 0.3534
vn 0.3749 -0.0535 0.9255
vn -0.3678 -0.0536 0.9284
vn -0.9228 -0.0579 0.3810
vn -0.3739 -0.0470 -0.9263
vn -0.9114 -0.0497 -0.4086
vn -0.5699 -0.0000 0.8217
vn 0.1904 0.5703 -0.7991
vn -0.7369 0.6750 0.0362
vn -0.6788 0.7183 -0.1526
vn 0.7838 -0.6114 -0.1093
vn 0.0470 -0.6597 0.7501
vn -0.5482 0.8210 0.1594
vn 0.2544 0.6967 -0.6707
vn 0.9346 0.1910 -0.3001
vn 0.4058 0.5562 -0.7252
vn -0.8119 0.4761 -0.3379
vn -0.5838 0.7322 0.3508
vn -0.1344 0.6781 0.7226
vn 0.7764 0.0037 0.6302
vn -0.6631 0.2191 -0.7157
vn -0.3616 0.9057 -0.2214
vn 0.4667 0.6372 0.6133
vn 0.7470 0.0046 0.6648
vn 0.2100 0.7912 -0.5744
vn 0.2066 0.8256 0.5251
vn -0.0458 0.1208 0.9916
vn 0.0183 0.1481 -0.9888
vn -0.3774 -0.8336 -0.4034
vn -0.3481 -0.8060 0.4787
vn 0.2673 0.9580 0.1040
vn 0.2118 0.3363 0.9176
vn 0.9697 -0.2439 0.0154
vn 0.9578 -0.1719 -0.2305
vn 0.0986 -0.2035 0.9741
vn -0.7926 0.3256 0.5154
vn -0.7800 0.6083 -0.1468
vn 0.1396 0.4185 -0.8974
vn 0.9195 0.0467 0.3902
vn 0.3902 0.0467 0.9195
vn -0.9247 0.0468 0.3778
vn -0.9247 0.0468 -0.3778
vn 0.2078 0.9448 -0.2533
vn -0.4971 0.5335 -0.6843
vn -0.9030 0.0507 -0.4265
vn -0.6114 0.0000 0.7914
vn 0.1838 0.5504 -0.8144
vn 0.1043 -0.7586 0.6432
vn -0.1699 -0.8248 0.5393
vn -0.9014 -0.3125 -0.2997
vn 0.6772 0.2503 0.6919
vn 0.2344 0.9384 0.2537
vn -0.7155 0.6703 -0.1970
vn 0.3690 -0.7321 0.5726
vn 0.0903 -0.8882 0.4505
vn -0.7743 0.4289 -0.4653
vn 0.8313 0.0000 0.5558
vn -0.4687 0.2679 -0.8417
vn 0.4278 0.0692 -0.9012
vn -0.5927 0.1572 -0.7899
vn -0.8081 0.2776 -0.5195
vn -0.8483 0.2692 0.4560
vn 0.9280 0.2015 -0.3134
vn -0.8433 0.4473 -0.2978
vn 0.7629 0.0037 0.6465
vn -0.6479 0.2188 -0.7297
vn -0.4240 0.1416 0.8945
vn 0.3745 0.0876 0.9231
usemtl troc
s 1
f 1/0/1 2/0/1 3/0/1
f 2/0/2 4/0/3 5/0/2
f 6/0/4 7/0/4 8/0/4
f 6/0/5 9/0/5 10/0/5
f 11/0/6 12/0/6 13/0/6
f 12/0/7 14/0/7 15/0/7
f 16/0/8 17/0/8 18/0/8
f 19/0/9 1/0/9 3/0/9
f 14/0/10 19/0/10 15/0/10
f 20/0/11 21/0/11 22/0/11
f 23/0/12 17/0/12 24/0/12
f 16/0/13 24/0/14 25/0/15
f 26/0/16 24/0/17 27/0/18
f 28/0/19 29/0/20 26/0/21
f 30/0/22 31/0/23 28/0/24
f 30/0/25 23/0/25 32/0/25
f 33/0/26 23/0/26 34/0/26
f 33/0/27 17/0/27 35/0/27
f 36/0/28 18/0/28 37/0/28
f 38/0/29 16/0/29 36/0/29
f 38/0/30 26/0/30 27/0/30
f 39/0/31 26/0/31 40/0/31
f 39/0/32 30/0/33 28/0/34
f 41/0/35 34/0/36 30/0/37
f 42/0/38 43/0/38 44/0/38
f 45/0/39 46/0/39 42/0/39
f 47/0/40 48/0/40 49/0/40
f 49/0/41 50/0/41 51/0/41
f 51/0/42 52/0/42 53/0/42
f 53/0/43 54/0/43 55/0/43
f 54/0/44 20/0/44 55/0/44
f 56/0/45 21/0/45 20/0/45
f 57/0/46 47/0/46 22/0/46
f 58/0/47 22/0/47 21/0/47
f 59/0/48 60/0/48 61/0/48
f 62/0/49 63/0/49 64/0/49
f 62/0/50 65/0/51 66/0/50
f 67/0/52 68/0/52 69/0/52
f 70/0/53 68/0/53 11/0/53
f 70/0/54 71/0/55 72/0/56
f 4/0/3 73/0/57 71/0/58
f 59/0/59 74/0/59 75/0/59
f 76/0/60 63/0/60 77/0/60
f 76/0/61 65/0/61 64/0/61
f 66/0/62 78/0/62 79/0/62
f 80/0/63 77/0/63 63/0/63
f 81/0/64 77/0/64 82/0/64
f 81/0/65 78/0/65 76/0/65
f 83/0/66 84/0/66 85/0/66
f 83/0/67 86/0/67 87/0/67
f 88/0/68 89/0/69 90/0/70
f 91/0/71 92/0/71 93/0/71
f 94/0/72 92/0/72 95/0/72
f 94/0/73 89/0/73 96/0/73
f 97/0/74 98/0/75 99/0/76
f 98/0/77 100/0/78 101/0/77
f 101/0/79 102/0/79 103/0/79
f 102/0/80 104/0/81 103/0/82
f 104/0/83 105/0/83 106/0/83
f 106/0/84 107/0/85 108/0/86
f 109/0/87 99/0/88 110/0/89
f 107/0/90 110/0/90 108/0/90
f 111/0/91 112/0/91 113/0/91
f 112/0/92 114/0/92 115/0/92
f 116/0/93 9/0/93 115/0/93
f 117/0/94 113/0/94 118/0/94
f 119/0/95 114/0/95 120/0/95
f 119/0/96 111/0/96 117/0/96
f 102/0/97 121/0/97 6/0/97
f 102/0/98 10/0/98 122/0/98
f 13/0/99 10/0/99 116/0/100
f 4/0/101 118/0/101 5/0/101
f 70/0/102 123/0/102 119/0/102
f 70/0/103 117/0/103 4/0/103
f 124/0/104 125/0/105 126/0/105
f 124/0/106 127/0/106 128/0/106
f 129/0/107 130/0/107 131/0/107
f 132/0/108 127/0/108 129/0/108
f 132/0/109 125/0/109 128/0/109
f 133/0/110 43/0/110 126/0/110
f 73/0/111 44/0/111 71/0/111
f 73/0/112 45/0/112 42/0/112
f 18/0/113 131/0/113 37/0/113
f 33/0/114 129/0/114 18/0/114
f 33/0/115 134/0/115 132/0/115
f 135/0/116 44/0/117 133/0/118
f 136/0/49 80/0/49 62/0/49
f 136/0/50 66/0/50 137/0/50
f 137/0/62 79/0/62 89/0/119
f 93/0/63 82/0/63 80/0/63
f 96/0/64 82/0/64 92/0/64
f 96/0/65 79/0/65 81/0/65
f 138/0/120 91/0/121 139/0/122
f 138/0/123 88/0/123 69/0/123
f 69/0/124 90/0/124 67/0/124
f 140/0/125 95/0/126 91/0/127
f 14/0/128 95/0/128 141/0/128
f 14/0/129 90/0/129 94/0/129
f 85/0/130 142/0/130 143/0/130
f 85/0/131 144/0/131 86/0/131
f 145/0/132 86/0/132 144/0/132
f 146/0/133 144/0/133 143/0/133
f 146/0/134 142/0/134 147/0/134
f 147/0/135 84/0/135 148/0/135
f 139/0/136 148/0/136 83/0/136
f 139/0/137 87/0/137 88/0/137
f 88/0/138 145/0/138 137/0/138
f 136/0/139 145/0/139 146/0/139
f 136/0/140 147/0/140 93/0/140
f 91/0/141 147/0/141 148/0/141
f 99/0/142 48/0/142 149/0/142
f 48/0/143 101/0/143 50/0/143
f 50/0/144 103/0/145 52/0/146
f 103/0/147 54/0/148 52/0/149
f 104/0/150 56/0/150 54/0/150
f 56/0/151 108/0/152 58/0/153
f 57/0/154 99/0/154 149/0/154
f 108/0/155 57/0/156 58/0/157
f 3/0/1 150/0/1 97/0/1
f 150/0/2 5/0/2 100/0/2
f 151/0/158 152/0/158 153/0/158
f 151/0/159 154/0/159 155/0/159
f 19/0/160 97/0/160 109/0/160
f 15/0/161 109/0/161 107/0/161
f 7/0/91 112/0/91 8/0/91
f 112/0/92 9/0/92 8/0/92
f 123/0/162 115/0/162 114/0/162
f 118/0/163 7/0/163 121/0/163
f 11/0/99 116/0/100 123/0/164
f 5/0/101 121/0/101 100/0/101
f 152/0/165 156/0/165 157/0/165
f 156/0/166 154/0/166 158/0/166
f 159/0/167 158/0/167 160/0/167
f 159/0/168 157/0/168 156/0/168
f 160/0/169 154/0/169 161/0/169
f 162/0/170 152/0/170 157/0/170
f 13/0/171 151/0/171 153/0/171
f 12/0/172 161/0/172 151/0/172
f 105/0/173 160/0/173 107/0/173
f 105/0/174 162/0/174 159/0/174
f 107/0/175 161/0/175 15/0/175
f 122/0/176 153/0/176 162/0/176
f 163/0/177 60/0/177 75/0/177
f 163/0/178 74/0/178 164/0/178
f 165/0/179 164/0/179 74/0/179
f 61/0/180 166/0/180 167/0/180
f 168/0/181 166/0/182 163/0/182
f 168/0/183 164/0/183 169/0/183
f 170/0/184 61/0/184 140/0/184
f 170/0/185 165/0/185 59/0/185
f 171/0/186 165/0/186 73/0/186
f 141/0/187 61/0/187 167/0/187
f 1/0/188 167/0/188 168/0/188
f 1/0/189 169/0/189 171/0/189
f 170/0/28 36/0/28 37/0/28
f 138/0/190 36/0/190 140/0/190
f 138/0/191 40/0/191 38/0/191
f 172/0/192 173/0/192 174/0/192
f 172/0/193 175/0/193 176/0/193
f 72/0/56 135/0/194 41/0/35
f 43/0/195 124/0/104 126/0/105
f 177/0/196 124/0/196 46/0/196
f 131/0/197 177/0/197 45/0/197
f 134/0/198 126/0/198 125/0/198
f 37/0/199 45/0/199 170/0/199
f 34/0/200 133/0/118 134/0/201
f 178/0/202 173/0/202 179/0/202
f 178/0/203 175/0/203 174/0/203
f 176/0/204 180/0/204 181/0/204
f 182/0/205 179/0/205 173/0/205
f 183/0/206 180/0/206 178/0/206
f 183/0/207 179/0/207 184/0/207
f 39/0/208 182/0/209 172/0/209
f 39/0/210 176/0/210 41/0/210
f 72/0/211 176/0/211 181/0/211
f 40/0/212 184/0/212 182/0/212
f 68/0/213 181/0/213 183/0/213
f 68/0/214 184/0/214 69/0/214
f 1/0/1 171/0/1 2/0/1
f 2/0/2 171/0/215 4/0/3
f 6/0/216 121/0/216 7/0/216
f 6/0/217 8/0/217 9/0/217
f 11/0/6 67/0/6 12/0/6
f 12/0/7 67/0/7 14/0/7
f 16/0/218 25/0/218 17/0/218
f 19/0/219 141/0/219 1/0/219
f 14/0/220 141/0/220 19/0/220
f 22/0/11 47/0/11 53/0/11
f 47/0/11 49/0/11 53/0/11
f 49/0/11 51/0/11 53/0/11
f 53/0/11 55/0/11 22/0/11
f 55/0/11 20/0/11 22/0/11
f 23/0/12 35/0/12 17/0/12
f 17/0/12 25/0/12 24/0/12
f 24/0/12 29/0/12 23/0/12
f 29/0/12 31/0/12 23/0/12
f 31/0/12 32/0/12 23/0/12
f 16/0/13 27/0/221 24/0/14
f 26/0/16 29/0/222 24/0/17
f 28/0/19 31/0/223 29/0/20
f 30/0/22 32/0/224 31/0/23
f 30/0/225 34/0/225 23/0/225
f 33/0/226 35/0/226 23/0/226
f 33/0/227 18/0/227 17/0/227
f 36/0/228 16/0/228 18/0/228
f 38/0/229 27/0/229 16/0/229
f 38/0/230 40/0/230 26/0/230
f 39/0/231 28/0/231 26/0/231
f 39/0/32 41/0/232 30/0/33
f 41/0/35 135/0/194 34/0/36
f 42/0/233 46/0/233 43/0/233
f 45/0/234 177/0/234 46/0/234
f 47/0/40 149/0/40 48/0/40
f 49/0/41 48/0/41 50/0/41
f 51/0/42 50/0/42 52/0/42
f 53/0/43 52/0/43 54/0/43
f 54/0/44 56/0/44 20/0/44
f 56/0/45 58/0/45 21/0/45
f 57/0/46 149/0/46 47/0/46
f 58/0/47 57/0/47 22/0/47
f 59/0/48 75/0/48 60/0/48
f 62/0/49 80/0/49 63/0/49
f 62/0/50 64/0/51 65/0/51
f 67/0/235 11/0/235 68/0/235
f 70/0/236 72/0/236 68/0/236
f 70/0/54 4/0/237 71/0/55
f 4/0/3 171/0/215 73/0/57
f 59/0/59 165/0/59 74/0/59
f 76/0/238 64/0/238 63/0/238
f 76/0/239 78/0/239 65/0/239
f 66/0/62 65/0/62 78/0/62
f 80/0/63 82/0/63 77/0/63
f 81/0/64 76/0/64 77/0/64
f 81/0/65 79/0/65 78/0/65
f 83/0/66 148/0/66 84/0/66
f 83/0/67 85/0/67 86/0/67
f 88/0/68 137/0/240 89/0/69
f 91/0/127 95/0/126 92/0/241
f 94/0/242 96/0/242 92/0/242
f 94/0/73 90/0/73 89/0/73
f 97/0/74 150/0/243 98/0/75
f 98/0/77 150/0/244 100/0/78
f 101/0/245 100/0/245 102/0/245
f 102/0/80 122/0/246 104/0/81
f 104/0/247 122/0/247 105/0/247
f 106/0/84 105/0/248 107/0/85
f 109/0/87 97/0/249 99/0/88
f 107/0/250 109/0/250 110/0/250
f 111/0/91 120/0/91 112/0/91
f 112/0/92 120/0/92 114/0/92
f 116/0/251 10/0/251 9/0/251
f 117/0/252 111/0/252 113/0/252
f 119/0/253 123/0/253 114/0/253
f 119/0/254 120/0/254 111/0/254
f 102/0/255 100/0/255 121/0/255
f 102/0/256 6/0/256 10/0/256
f 13/0/99 122/0/99 10/0/99
f 4/0/101 117/0/101 118/0/101
f 70/0/257 11/0/257 123/0/257
f 70/0/258 119/0/258 117/0/258
f 124/0/259 128/0/259 125/0/259
f 124/0/260 130/0/260 127/0/260
f 129/0/261 127/0/261 130/0/261
f 132/0/262 128/0/262 127/0/262
f 132/0/263 134/0/263 125/0/263
f 133/0/264 44/0/264 43/0/264
f 73/0/111 42/0/111 44/0/111
f 73/0/112 170/0/112 45/0/112
f 18/0/265 129/0/265 131/0/265
f 33/0/266 132/0/266 129/0/266
f 33/0/267 34/0/267 134/0/267
f 135/0/116 71/0/268 44/0/117
f 136/0/49 93/0/49 80/0/49
f 136/0/50 62/0/50 66/0/50
f 137/0/62 66/0/62 79/0/62
f 93/0/63 92/0/63 82/0/63
f 96/0/64 81/0/64 82/0/64
f 96/0/65 89/0/65 79/0/65
f 138/0/120 140/0/269 91/0/121
f 138/0/270 139/0/270 88/0/270
f 69/0/271 88/0/68 90/0/70
f 140/0/272 141/0/272 95/0/272
f 14/0/273 94/0/273 95/0/273
f 14/0/274 67/0/274 90/0/274
f 85/0/275 84/0/275 142/0/275
f 85/0/276 143/0/276 144/0/276
f 145/0/132 87/0/132 86/0/132
f 146/0/133 145/0/133 144/0/133
f 146/0/134 143/0/134 142/0/134
f 147/0/135 142/0/135 84/0/135
f 139/0/277 91/0/277 148/0/277
f 139/0/278 83/0/278 87/0/278
f 88/0/279 87/0/279 145/0/279
f 136/0/280 137/0/280 145/0/280
f 136/0/281 146/0/281 147/0/281
f 91/0/282 93/0/282 147/0/282
f 99/0/142 98/0/142 48/0/142
f 48/0/143 98/0/143 101/0/143
f 50/0/144 101/0/283 103/0/145
f 103/0/147 104/0/284 54/0/148
f 104/0/150 106/0/150 56/0/150
f 56/0/151 106/0/285 108/0/152
f 57/0/154 110/0/154 99/0/154
f 108/0/155 110/0/286 57/0/156
f 3/0/1 2/0/1 150/0/1
f 150/0/2 2/0/2 5/0/2
f 151/0/287 155/0/287 152/0/287
f 151/0/288 161/0/288 154/0/288
f 19/0/9 3/0/9 97/0/9
f 15/0/289 19/0/289 109/0/289
f 7/0/91 113/0/91 112/0/91
f 112/0/92 115/0/92 9/0/92
f 123/0/164 116/0/100 115/0/290
f 118/0/291 113/0/291 7/0/291
f 11/0/99 13/0/99 116/0/100
f 5/0/101 118/0/101 121/0/101
f 152/0/165 155/0/165 156/0/165
f 156/0/166 155/0/166 154/0/166
f 159/0/292 156/0/292 158/0/292
f 159/0/293 162/0/293 157/0/293
f 160/0/294 158/0/294 154/0/294
f 162/0/295 153/0/295 152/0/295
f 13/0/296 12/0/296 151/0/296
f 12/0/297 15/0/297 161/0/297
f 105/0/298 159/0/298 160/0/298
f 105/0/299 122/0/299 162/0/299
f 107/0/300 160/0/300 161/0/300
f 122/0/301 13/0/301 153/0/301
f 163/0/302 166/0/302 60/0/302
f 163/0/303 75/0/303 74/0/303
f 165/0/179 169/0/179 164/0/179
f 61/0/180 60/0/180 166/0/180
f 168/0/181 167/0/181 166/0/182
f 168/0/183 163/0/183 164/0/183
f 170/0/184 59/0/184 61/0/184
f 170/0/185 73/0/185 165/0/185
f 171/0/186 169/0/186 165/0/186
f 141/0/187 140/0/187 61/0/187
f 1/0/188 141/0/188 167/0/188
f 1/0/189 168/0/189 169/0/189
f 170/0/304 140/0/304 36/0/304
f 138/0/305 38/0/305 36/0/305
f 138/0/306 69/0/306 40/0/306
f 172/0/192 182/0/192 173/0/192
f 172/0/193 174/0/193 175/0/193
f 72/0/56 71/0/55 135/0/194
f 43/0/195 46/0/307 124/0/104
f 177/0/260 130/0/260 124/0/260
f 131/0/308 130/0/308 177/0/308
f 134/0/309 133/0/309 126/0/309
f 37/0/310 131/0/310 45/0/310
f 34/0/200 135/0/116 133/0/118
f 178/0/311 174/0/311 173/0/311
f 178/0/312 180/0/312 175/0/312
f 176/0/204 175/0/204 180/0/204
f 182/0/205 184/0/205 179/0/205
f 183/0/206 181/0/206 180/0/206
f 183/0/207 178/0/207 179/0/207
f 39/0/208 40/0/208 182/0/209
f 39/0/210 172/0/210 176/0/210
f 72/0/211 41/0/211 176/0/211
f 40/0/212 69/0/212 184/0/212
f 68/0/213 72/0/213 181/0/213
f 68/0/214 183/0/214 184/0/214
