# Blender v2.80 (sub 75) OBJ File: ''
# www.blender.org
mtllib treeWithoutLeaves.mtl
o Arbre_Automne_Cylinder.003
v 0.989057 1.887660 2.144121
v 0.989057 1.936622 2.144121
v 1.150351 1.958331 2.210931
v 1.150351 1.904646 2.210931
v 1.217161 1.934948 2.372225
v 1.217161 1.886114 2.372225
v 1.461859 1.964850 2.845026
v 1.505590 2.007055 2.739450
v 1.836977 2.618556 3.146640
v 1.847837 2.595804 3.190435
v 1.356282 2.007055 2.888757
v 1.817360 2.559809 3.208576
v 0.989057 1.895350 2.600328
v 0.989057 1.969473 2.600328
v 0.827764 1.976734 2.533518
v 0.827764 1.953705 2.533518
v 0.760954 1.909783 2.372225
v 0.760954 1.834979 2.372225
v 1.107716 2.582978 2.255734
v 1.032629 2.689128 2.289853
v 1.419037 3.458155 2.336778
v 1.452317 3.445953 2.322096
v 0.830741 1.897664 2.231927
v 0.831535 1.954481 2.237526
v 0.989057 -0.065052 2.080523
v 1.195322 -0.065052 2.165960
v 1.280760 -0.065052 2.372225
v 1.195322 -0.065052 2.578490
v 0.989057 -0.065052 2.663927
v 0.782793 -0.065052 2.578490
v 0.697355 -0.065052 2.372225
v 0.782793 -0.065052 2.165960
v 1.485597 3.433751 2.336778
v 1.405252 3.463209 2.372225
v 1.419037 3.458155 2.407671
v 1.452317 3.445953 2.422354
v 1.485597 3.433751 2.407671
v 1.499382 3.428697 2.372225
v 1.001527 2.701810 2.372225
v 1.032629 2.689128 2.454597
v 1.107716 2.658511 2.488716
v 1.182803 2.627894 2.454597
v 1.213906 2.539680 2.372225
v 1.182803 2.641739 2.289853
v 1.076807 2.433850 2.226660
v 0.977299 2.475111 2.288771
v 0.938860 2.519377 2.372225
v 0.979264 2.486170 2.475155
v 1.076807 2.508898 2.517790
v 1.174350 2.447391 2.475155
v 1.214754 2.401830 2.372225
v 1.494680 2.425092 2.057515
v 1.464080 2.392725 1.981364
v 1.760643 2.980377 1.695550
v 1.768613 2.976703 1.716784
v 1.390205 2.438624 1.949821
v 1.741404 2.994875 1.695132
v 0.989057 0.261615 2.144121
v 1.150351 0.261615 2.210931
v 1.217161 0.261615 2.372225
v 1.150351 0.261615 2.533518
v 0.989057 0.261615 2.600328
v 0.827764 0.261615 2.533518
v 0.760954 0.261615 2.372225
v 0.827764 0.261615 2.210931
v 0.959445 2.245710 1.904631
v 1.040434 2.257931 1.846295
v 1.029946 2.486708 1.379908
v 1.002993 2.482642 1.399321
v -0.061377 2.637912 2.360672
v -0.039891 2.605573 2.307201
v -0.493415 2.836787 2.336555
v -0.500707 2.847762 2.354702
v -0.039891 2.605573 2.414142
v -0.493415 2.836787 2.372849
v 1.048387 2.254884 2.544522
v 0.930196 2.299555 2.494057
v 1.150351 2.090138 2.533518
v 1.166577 2.281421 2.494057
v 1.215533 2.275080 2.372225
v 1.166577 2.223297 2.250392
v 1.118919 2.209167 1.879806
v 1.056065 2.470480 1.391060
v -0.508672 2.780619 2.330677
v -0.518624 2.774388 2.354702
v -0.508672 2.780619 2.378727
v -0.084847 2.440075 2.431461
v -0.084847 2.440075 2.289883
v -0.114169 2.421715 2.360672
v 0.442813 2.755757 2.481548
v 0.435592 2.763729 2.426668
v 0.337872 3.075042 2.663951
v 0.340687 3.071934 2.685343
v 0.436273 2.696924 2.498255
v 0.338137 3.049002 2.691855
v 0.284002 2.179132 2.478876
v 0.355662 2.432913 2.451270
v 0.172208 2.497442 2.433453
v 0.113363 2.280813 2.456122
v 0.354553 2.433024 2.291799
v 0.285111 2.179021 2.261021
v 0.113363 2.280813 2.270804
v 0.172208 2.497442 2.293473
v 0.237264 2.149866 2.366039
v 0.074983 2.256780 2.363463
v 0.989057 0.981465 2.180664
v 0.989057 1.701564 2.144121
v 1.150351 1.703327 2.210931
v 1.124511 0.981465 2.236771
v 1.217161 1.702949 2.372225
v 1.180618 0.981465 2.372225
v 1.150351 1.588473 2.533518
v 1.124511 0.954390 2.507679
v 0.989057 1.613874 2.600328
v 0.989057 0.981465 2.563786
v 0.827764 1.563590 2.533518
v 0.853603 0.981465 2.507679
v 0.760954 1.567123 2.372225
v 0.797497 0.966330 2.372225
v 0.853603 0.981465 2.236771
v 0.827764 1.668069 2.210931
v 1.789882 2.634282 3.146640
v 1.777324 2.638476 3.146640
v 1.755094 2.626774 3.190435
v 1.774619 2.620254 3.190435
v 1.757707 2.579729 3.208576
v 1.770265 2.575535 3.208576
v 1.356282 2.126747 2.888757
v 1.505590 2.126747 2.739450
v 1.505590 2.158665 2.739450
v 1.461859 2.276261 2.845026
v 1.356282 2.158665 2.888757
v 1.768486 2.998986 1.731168
v 1.761909 3.011069 1.719026
v 1.763285 3.044449 1.744558
v 1.768348 3.023219 1.746813
v 1.746031 3.016216 1.714088
v 1.751062 3.039425 1.734704
v 1.407969 2.546946 1.966531
v 1.427289 2.664754 1.984703
v 1.474222 2.688706 2.006029
v 1.493662 2.637691 2.057515
v 1.494192 2.526932 2.057515
v 1.048387 2.296730 2.199928
v 0.144084 2.539772 2.363463
v 0.881240 2.351634 2.372225
v 0.926425 2.278327 2.287776
v 0.366314 2.484461 2.366039
v 0.294232 3.086047 2.674755
v 0.287501 3.082039 2.693916
v 0.294232 3.063208 2.699264
v 0.323631 2.733368 2.517264
v 0.306363 2.781680 2.503544
v 0.323631 2.791963 2.454386
v 0.733247 1.889225 2.982937
v 0.674324 1.897305 2.883860
v 0.311255 2.083881 3.282042
v 0.345250 2.079562 3.293815
v 0.592350 1.800743 2.868138
v 0.290775 2.047788 3.279809
v 0.345250 2.041213 3.333805
v 0.311255 2.030730 3.337466
v 0.290775 2.011294 3.317864
v 0.492947 1.747645 2.984624
v 0.529550 1.819972 3.053515
v 0.628789 1.833427 3.105347
v 1.016835 2.407128 1.367575
v 0.982024 2.411075 1.388217
v 1.052479 2.411926 1.382339
v 1.108144 2.033216 1.853602
v 0.896433 2.030659 1.871262
v 1.001036 2.018800 1.809237
v 1.099976 2.522341 3.019789
v 1.032179 2.506543 2.990156
v 1.085093 2.751467 3.505157
v 1.123145 2.760334 3.521789
v 1.167773 2.479589 2.990156
v 1.161197 2.736339 3.505157
v 1.065952 2.678668 3.512531
v 1.112058 2.661241 3.532218
v 1.158165 2.671594 3.512531
v 1.162371 2.364232 3.003294
v 0.998074 2.376836 3.003294
v 1.080222 2.345787 3.038370
vn 0.3827 0.0000 -0.9239
vn 0.9239 0.0000 -0.3827
vn 0.8667 -0.3212 -0.3818
vn 0.1120 -0.5660 0.8167
vn -0.3827 0.0000 0.9239
vn -0.9239 0.0000 0.3827
vn -0.2130 0.1592 -0.9640
vn -0.4850 0.0000 -0.8745
vn -0.8953 0.0000 -0.4454
vn 0.0000 -1.0000 0.0000
vn 0.3442 0.9389 0.0000
vn -0.8172 0.4338 -0.3796
vn -0.8187 0.4341 0.3759
vn -0.3275 0.2206 0.9187
vn 0.3816 -0.0894 0.9200
vn 0.8720 -0.3054 0.3827
vn 0.7660 -0.2460 -0.5940
vn 0.3747 -0.0886 -0.9229
vn -0.4323 0.2580 -0.8640
vn -0.8369 0.2189 -0.5016
vn -0.8759 0.3009 0.3771
vn -0.4314 0.2025 0.8791
vn 0.4401 0.0828 0.8941
vn 0.9344 -0.0032 0.3562
vn 0.8541 -0.5039 -0.1290
vn 0.0835 -0.4696 -0.8789
vn 0.3766 0.1770 -0.9093
vn 0.9093 0.1770 -0.3766
vn 0.9093 0.1770 0.3766
vn 0.3766 0.1770 0.9093
vn -0.3766 0.1770 0.9093
vn -0.9093 0.1770 0.3766
vn -0.3766 0.1770 -0.9093
vn -0.9093 0.1770 -0.3766
vn 0.1764 0.8853 0.4303
vn 0.4081 0.8445 -0.3468
vn 0.3996 0.8466 0.3515
vn -0.3145 0.2129 0.9251
vn 0.3001 0.1226 0.9460
vn 0.9279 -0.0018 0.3729
vn 0.9272 0.0044 -0.3745
vn 0.3509 0.8438 0.4060
vn -0.9106 0.2792 -0.3048
vn -0.8570 0.2093 0.4709
vn -0.0329 0.1129 0.9931
vn -0.0099 0.1067 -0.9942
vn -0.5919 -0.6860 -0.4231
vn -0.5987 -0.6794 0.4242
vn 0.9345 0.3485 -0.0723
vn 0.9057 0.0196 0.4235
vn -0.0581 0.1242 0.9906
vn 0.0252 0.0973 -0.9949
vn -0.4782 -0.7655 -0.4304
vn -0.5070 -0.7598 0.4071
vn 0.3823 -0.0468 -0.9229
vn 0.9229 -0.0467 -0.3823
vn 0.9263 -0.0530 0.3731
vn 0.3731 -0.0530 0.9263
vn -0.3820 -0.0579 0.9223
vn -0.9202 -0.0560 0.3874
vn -0.3822 -0.0491 -0.9228
vn -0.9202 -0.0560 -0.3874
vn 0.2926 0.8763 0.3827
vn 0.1213 0.3630 0.9239
vn -0.1578 -0.4724 0.8671
vn 0.8199 0.0000 -0.5725
vn -0.8272 0.1616 0.5382
vn -0.0393 0.6594 -0.7508
vn 0.7501 -0.6597 0.0470
vn 0.1831 -0.6869 0.7033
vn -0.6177 0.0000 0.7864
vn 0.7864 0.0000 -0.6177
vn -0.6707 0.6967 0.2544
vn 0.2197 0.7469 -0.6276
vn 0.9312 0.2015 -0.3039
vn 0.3724 0.5541 -0.7445
vn -0.7605 0.2190 -0.6113
vn -0.5528 0.7371 0.3887
vn 0.5021 0.2089 0.8392
vn 0.8875 -0.2464 0.3895
vn 0.5693 -0.8137 0.1171
vn -0.1756 -0.7337 -0.6563
vn -0.6502 0.2730 -0.7090
vn -0.4854 0.8105 -0.3278
vn 0.4223 0.7186 0.5525
vn 0.7471 0.0036 0.6648
vn -0.0329 0.1128 0.9931
vn 0.2102 0.7877 -0.5791
vn 0.1916 0.9280 0.3197
vn -0.0487 0.1364 0.9895
vn 0.0238 0.1138 -0.9932
vn -0.3549 -0.8158 -0.4567
vn -0.3893 -0.8395 0.3790
vn 0.2219 0.9359 0.2737
vn 0.2368 0.2409 0.9412
vn -0.0088 -0.4837 0.8752
vn -0.9229 -0.2458 0.2963
vn -0.9435 0.1332 -0.3036
vn -0.0482 0.5959 -0.8016
vn 0.9660 -0.2056 -0.1570
vn 0.9577 -0.2832 -0.0516
vn -0.1735 -0.2289 0.9579
vn -0.6428 -0.0123 0.7659
vn -0.5477 0.6001 -0.5830
vn -0.1237 0.4006 -0.9079
vn 0.3823 0.0468 -0.9229
vn 0.9229 0.0468 -0.3823
vn 0.9228 0.0487 0.3822
vn 0.3822 0.0487 0.9228
vn -0.3823 0.0468 0.9229
vn -0.9228 0.0479 0.3822
vn -0.3823 0.0468 -0.9229
vn -0.9228 0.0479 -0.3822
vn 0.3493 0.9277 -0.1321
vn -0.5889 0.3783 -0.7142
vn -0.3968 0.0887 -0.9136
vn -0.9239 0.0000 -0.3827
vn 0.1212 0.3630 0.9239
vn -0.1645 -0.4924 0.8547
vn 0.7756 0.0000 -0.6312
vn -0.1464 0.7140 0.6847
vn -0.8030 0.4301 0.4125
vn 0.1643 -0.7227 0.6714
vn 0.2780 -0.6566 0.7011
vn -0.7773 0.0889 -0.6228
vn 0.7358 0.4888 0.4687
vn 0.0517 0.9974 0.0506
vn -0.7273 0.6522 -0.2136
vn -0.3458 -0.9302 0.1229
vn -0.0856 -0.9122 0.4007
vn -0.9468 0.0000 -0.3219
vn 0.7819 -0.1229 0.6112
vn -0.5918 0.2178 -0.7761
vn 0.3669 0.1150 -0.9231
vn 0.9883 -0.0385 -0.1477
vn -0.9605 0.2743 0.0458
vn -0.4338 -0.6689 -0.6036
vn 0.3489 -0.7099 -0.6117
vn -0.2195 0.9703 -0.1015
vn 0.5563 0.8246 -0.1030
vn 0.9912 -0.0420 -0.1259
vn -0.9496 0.2948 -0.1069
vn -0.2483 -0.9387 -0.2392
vn 0.2209 -0.9490 -0.2250
vn -0.7783 0.2042 -0.5937
vn -0.8539 0.2933 0.4298
vn -0.0238 0.9038 -0.4274
vn 0.3488 0.8405 -0.4146
vn 0.9306 -0.0019 0.3661
vn 0.4225 0.5396 -0.7283
vn -0.7756 0.2185 -0.5922
vn 0.8628 -0.2707 0.4269
vn -0.6393 0.2727 -0.7190
vn 0.7468 0.0036 0.6650
vn -0.3279 0.1801 0.9274
vn 0.4251 0.0476 0.9039
vn 0.9985 -0.0429 0.0341
vn -0.9674 0.2523 -0.0206
vn 0.3822 -0.7897 0.4798
vn -0.4838 -0.7231 0.4931
vn -0.2203 0.9753 -0.0159
vn 0.5181 0.8540 -0.0468
vn 0.9989 -0.0450 0.0156
vn -0.9611 0.2617 0.0884
vn 0.2795 -0.9473 0.1564
vn -0.4172 -0.8886 0.1905
vn 0.8329 -0.5379 0.1300
vn 0.7934 -0.5824 0.1773
vn -0.3253 0.2196 -0.9198
vn -0.5002 0.0918 -0.8610
vn -0.8920 0.0567 -0.4486
vn -0.8187 0.4341 -0.3759
vn -0.8171 0.4338 0.3796
vn -0.3252 0.2198 0.9197
vn 0.3752 -0.0872 0.9228
vn 0.7848 -0.2520 0.5662
vn 0.8703 -0.3101 -0.3827
vn 0.4932 -0.1308 -0.8601
vn -0.3101 0.0850 -0.9469
vn -0.8759 0.3009 -0.3771
vn -0.8634 0.2702 0.4261
vn -0.3171 0.2436 0.9166
vn 0.4417 0.0811 0.8935
vn 0.9317 0.0057 0.3632
vn 0.7416 -0.5565 -0.3746
vn -0.2043 -0.2980 -0.9325
vn -0.3608 0.2507 0.8983
vn 0.3571 0.1596 0.9203
vn 0.9254 0.0044 0.3790
vn 0.9239 0.0004 -0.3826
vn -0.8570 0.2093 -0.4709
vn -0.9106 0.2792 0.3048
vn -0.0546 0.1186 0.9914
vn 0.0127 0.1169 -0.9931
vn -0.4985 -0.7664 -0.4052
vn 0.3827 -0.0467 -0.9227
vn 0.9228 -0.0467 -0.3824
vn 0.9343 -0.0473 0.3534
vn 0.3749 -0.0535 0.9255
vn -0.3678 -0.0536 0.9284
vn -0.9228 -0.0579 0.3810
vn -0.3739 -0.0470 -0.9263
vn -0.9114 -0.0497 -0.4086
vn -0.5699 0.0000 0.8217
vn 0.1904 0.5703 -0.7991
vn -0.7369 0.6750 0.0362
vn -0.6788 0.7183 -0.1526
vn 0.7838 -0.6114 -0.1093
vn 0.0470 -0.6597 0.7501
vn -0.5482 0.8210 0.1594
vn 0.2544 0.6967 -0.6707
vn 0.9346 0.1910 -0.3001
vn 0.4058 0.5562 -0.7252
vn -0.8119 0.4761 -0.3379
vn -0.5838 0.7322 0.3508
vn -0.1344 0.6781 0.7226
vn 0.7764 0.0037 0.6302
vn -0.6631 0.2191 -0.7157
vn -0.3616 0.9057 -0.2214
vn 0.4667 0.6372 0.6133
vn 0.7470 0.0046 0.6648
vn 0.2100 0.7912 -0.5744
vn 0.2066 0.8256 0.5251
vn -0.0458 0.1208 0.9916
vn 0.0183 0.1481 -0.9888
vn -0.3774 -0.8336 -0.4034
vn -0.3481 -0.8060 0.4787
vn 0.2673 0.9580 0.1040
vn 0.2118 0.3363 0.9176
vn -0.9229 -0.2457 0.2963
vn 0.9697 -0.2439 0.0154
vn 0.9578 -0.1719 -0.2305
vn 0.0986 -0.2035 0.9741
vn -0.7926 0.3256 0.5154
vn -0.7800 0.6083 -0.1468
vn 0.1396 0.4185 -0.8974
vn 0.9195 0.0467 0.3902
vn 0.3902 0.0467 0.9195
vn -0.9247 0.0468 0.3778
vn -0.9247 0.0468 -0.3778
vn 0.2078 0.9448 -0.2533
vn -0.4971 0.5335 -0.6843
vn -0.9030 0.0507 -0.4265
vn -0.6114 0.0000 0.7914
vn 0.1838 0.5504 -0.8144
vn 0.1043 -0.7586 0.6432
vn -0.1699 -0.8248 0.5393
vn -0.9014 -0.3125 -0.2997
vn 0.6772 0.2503 0.6919
vn 0.2344 0.9384 0.2537
vn -0.7155 0.6703 -0.1970
vn 0.3690 -0.7321 0.5726
vn 0.0903 -0.8882 0.4505
vn -0.7743 0.4289 -0.4653
vn 0.8313 0.0000 0.5558
vn -0.4687 0.2679 -0.8417
vn 0.4278 0.0692 -0.9012
vn -0.4338 -0.6689 -0.6037
vn -0.5927 0.1572 -0.7899
vn -0.8081 0.2776 -0.5195
vn -0.8483 0.2692 0.4560
vn 0.9280 0.0057 0.3726
vn 0.9280 0.2015 -0.3135
vn -0.8433 0.4473 -0.2978
vn 0.7629 0.0037 0.6465
vn -0.6479 0.2188 -0.7297
vn 0.7469 0.0046 0.6650
vn -0.4240 0.1416 0.8945
vn 0.3745 0.0876 0.9231
usemtl troc
s off
f 2/0/1 4/0/1 1/0/1
f 4/0/2 5/0/2 6/0/2
f 7/0/3 9/0/3 10/0/3
f 7/0/4 12/0/4 11/0/4
f 14/0/5 16/0/5 13/0/5
f 16/0/6 17/0/6 18/0/6
f 20/0/7 22/0/7 19/0/7
f 23/0/8 2/0/8 1/0/8
f 17/0/9 23/0/9 18/0/9
f 30/0/10 31/0/10 32/0/10
f 38/0/11 22/0/11 34/0/11
f 20/0/12 34/0/12 21/0/12
f 40/0/13 34/0/13 39/0/13
f 41/0/14 35/0/14 40/0/14
f 42/0/15 36/0/15 41/0/15
f 42/0/16 38/0/16 37/0/16
f 44/0/17 38/0/17 43/0/17
f 44/0/18 22/0/18 33/0/18
f 46/0/19 19/0/19 45/0/19
f 47/0/20 20/0/20 46/0/20
f 47/0/21 40/0/21 39/0/21
f 49/0/22 40/0/22 48/0/22
f 49/0/23 42/0/23 41/0/23
f 50/0/24 43/0/24 42/0/24
f 53/0/25 55/0/25 52/0/25
f 56/0/26 54/0/26 53/0/26
f 25/0/27 59/0/27 26/0/27
f 26/0/28 60/0/28 27/0/28
f 27/0/29 61/0/29 28/0/29
f 28/0/30 62/0/30 29/0/30
f 62/0/31 30/0/31 29/0/31
f 63/0/32 31/0/32 30/0/32
f 65/0/33 25/0/33 32/0/33
f 64/0/34 32/0/34 31/0/34
f 67/0/35 69/0/35 66/0/35
f 70/0/36 72/0/36 73/0/36
f 70/0/37 75/0/37 74/0/37
f 15/0/38 76/0/38 77/0/38
f 78/0/39 76/0/39 14/0/39
f 78/0/40 80/0/40 79/0/40
f 5/0/41 81/0/41 80/0/41
f 67/0/42 83/0/42 68/0/42
f 85/0/43 72/0/43 84/0/43
f 85/0/44 75/0/44 73/0/44
f 74/0/45 86/0/45 87/0/45
f 71/0/46 84/0/46 72/0/46
f 89/0/47 84/0/47 88/0/47
f 89/0/48 86/0/48 85/0/48
f 90/0/49 92/0/49 93/0/49
f 90/0/50 95/0/50 94/0/50
f 97/0/51 99/0/51 96/0/51
f 100/0/52 102/0/52 103/0/52
f 104/0/53 102/0/53 101/0/53
f 104/0/54 99/0/54 105/0/54
f 107/0/55 109/0/55 106/0/55
f 109/0/56 110/0/56 111/0/56
f 111/0/57 112/0/57 113/0/57
f 112/0/58 115/0/58 113/0/58
f 115/0/59 116/0/59 117/0/59
f 117/0/60 118/0/60 119/0/60
f 121/0/61 106/0/61 120/0/61
f 118/0/62 120/0/62 119/0/62
f 123/0/63 125/0/63 122/0/63
f 125/0/64 126/0/64 127/0/64
f 128/0/65 12/0/65 127/0/65
f 130/0/66 122/0/66 129/0/66
f 131/0/67 126/0/67 124/0/67
f 131/0/68 123/0/68 130/0/68
f 112/0/69 8/0/69 7/0/69
f 112/0/70 11/0/70 114/0/70
f 13/0/71 11/0/71 128/0/71
f 5/0/72 129/0/72 6/0/72
f 78/0/73 132/0/73 131/0/73
f 78/0/74 130/0/74 5/0/74
f 134/0/75 136/0/75 133/0/75
f 134/0/76 138/0/76 135/0/76
f 140/0/77 137/0/77 139/0/77
f 141/0/78 138/0/78 140/0/78
f 141/0/79 136/0/79 135/0/79
f 143/0/80 55/0/80 133/0/80
f 81/0/81 52/0/81 80/0/81
f 81/0/82 56/0/82 53/0/82
f 19/0/83 139/0/83 45/0/83
f 44/0/84 140/0/84 19/0/84
f 44/0/85 142/0/85 141/0/85
f 51/0/86 52/0/86 143/0/86
f 145/0/36 71/0/36 70/0/36
f 145/0/37 74/0/37 98/0/37
f 98/0/87 87/0/87 99/0/87
f 103/0/46 88/0/46 71/0/46
f 105/0/47 88/0/47 102/0/47
f 105/0/48 87/0/48 89/0/48
f 146/0/88 100/0/88 148/0/88
f 146/0/89 97/0/89 77/0/89
f 77/0/90 96/0/90 15/0/90
f 147/0/91 101/0/91 100/0/91
f 17/0/92 101/0/92 24/0/92
f 17/0/93 96/0/93 104/0/93
f 93/0/94 149/0/94 150/0/94
f 93/0/95 151/0/95 95/0/95
f 152/0/96 95/0/96 151/0/96
f 153/0/97 151/0/97 150/0/97
f 153/0/98 149/0/98 154/0/98
f 154/0/99 92/0/99 91/0/99
f 148/0/100 91/0/100 90/0/100
f 148/0/101 94/0/101 97/0/101
f 97/0/102 152/0/102 98/0/102
f 145/0/103 152/0/103 153/0/103
f 145/0/104 154/0/104 103/0/104
f 100/0/105 154/0/105 91/0/105
f 106/0/106 59/0/106 58/0/106
f 59/0/107 111/0/107 60/0/107
f 60/0/108 113/0/108 61/0/108
f 113/0/109 62/0/109 61/0/109
f 115/0/110 63/0/110 62/0/110
f 63/0/111 119/0/111 64/0/111
f 65/0/112 106/0/112 58/0/112
f 119/0/113 65/0/113 64/0/113
f 1/0/1 108/0/1 107/0/1
f 108/0/2 6/0/2 110/0/2
f 156/0/114 158/0/114 155/0/114
f 156/0/115 160/0/115 157/0/115
f 23/0/116 107/0/116 121/0/116
f 18/0/117 121/0/117 118/0/117
f 9/0/63 125/0/63 10/0/63
f 125/0/118 12/0/118 10/0/118
f 132/0/119 127/0/119 126/0/119
f 129/0/120 9/0/120 8/0/120
f 14/0/71 128/0/71 132/0/71
f 6/0/72 8/0/72 110/0/72
f 158/0/121 162/0/121 161/0/121
f 162/0/122 160/0/122 163/0/122
f 165/0/123 163/0/123 164/0/123
f 165/0/124 161/0/124 162/0/124
f 164/0/125 160/0/125 159/0/125
f 166/0/126 158/0/126 161/0/126
f 13/0/127 156/0/127 155/0/127
f 16/0/128 159/0/128 156/0/128
f 116/0/129 164/0/129 118/0/129
f 116/0/130 166/0/130 165/0/130
f 118/0/131 159/0/131 18/0/131
f 114/0/132 155/0/132 166/0/132
f 167/0/133 69/0/133 68/0/133
f 167/0/134 83/0/134 169/0/134
f 82/0/135 169/0/135 83/0/135
f 66/0/136 168/0/136 171/0/136
f 172/0/137 168/0/137 167/0/137
f 172/0/138 169/0/138 170/0/138
f 144/0/139 66/0/139 147/0/139
f 144/0/140 82/0/140 67/0/140
f 3/0/141 82/0/141 81/0/141
f 24/0/142 66/0/142 171/0/142
f 2/0/143 171/0/143 172/0/143
f 2/0/144 170/0/144 3/0/144
f 144/0/19 46/0/19 45/0/19
f 146/0/145 46/0/145 147/0/145
f 146/0/146 48/0/146 47/0/146
f 173/0/147 175/0/147 176/0/147
f 173/0/148 178/0/148 177/0/148
f 79/0/149 51/0/149 50/0/149
f 55/0/75 134/0/75 133/0/75
f 57/0/150 134/0/150 54/0/150
f 139/0/151 57/0/151 56/0/151
f 142/0/152 133/0/152 136/0/152
f 45/0/153 56/0/153 144/0/153
f 43/0/154 143/0/154 142/0/154
f 180/0/155 175/0/155 179/0/155
f 180/0/156 178/0/156 176/0/156
f 177/0/157 181/0/157 182/0/157
f 174/0/158 179/0/158 175/0/158
f 184/0/159 181/0/159 180/0/159
f 184/0/160 179/0/160 183/0/160
f 49/0/161 174/0/161 173/0/161
f 49/0/162 177/0/162 50/0/162
f 79/0/163 177/0/163 182/0/163
f 48/0/164 183/0/164 174/0/164
f 76/0/165 182/0/165 184/0/165
f 76/0/166 183/0/166 77/0/166
f 2/0/1 3/0/1 4/0/1
f 4/0/2 3/0/2 5/0/2
f 7/0/167 8/0/167 9/0/167
f 7/0/168 10/0/168 12/0/168
f 14/0/5 15/0/5 16/0/5
f 16/0/6 15/0/6 17/0/6
f 20/0/169 21/0/169 22/0/169
f 23/0/170 24/0/170 2/0/170
f 17/0/171 24/0/171 23/0/171
f 32/0/10 25/0/10 28/0/10
f 25/0/10 26/0/10 28/0/10
f 26/0/10 27/0/10 28/0/10
f 28/0/10 29/0/10 32/0/10
f 29/0/10 30/0/10 32/0/10
f 38/0/11 33/0/11 22/0/11
f 22/0/11 21/0/11 34/0/11
f 34/0/11 35/0/11 38/0/11
f 35/0/11 36/0/11 38/0/11
f 36/0/11 37/0/11 38/0/11
f 20/0/172 39/0/172 34/0/172
f 40/0/173 35/0/173 34/0/173
f 41/0/174 36/0/174 35/0/174
f 42/0/175 37/0/175 36/0/175
f 42/0/176 43/0/176 38/0/176
f 44/0/177 33/0/177 38/0/177
f 44/0/178 19/0/178 22/0/178
f 46/0/179 20/0/179 19/0/179
f 47/0/180 39/0/180 20/0/180
f 47/0/181 48/0/181 40/0/181
f 49/0/182 41/0/182 40/0/182
f 49/0/183 50/0/183 42/0/183
f 50/0/184 51/0/184 43/0/184
f 53/0/185 54/0/185 55/0/185
f 56/0/186 57/0/186 54/0/186
f 25/0/27 58/0/27 59/0/27
f 26/0/28 59/0/28 60/0/28
f 27/0/29 60/0/29 61/0/29
f 28/0/30 61/0/30 62/0/30
f 62/0/31 63/0/31 30/0/31
f 63/0/32 64/0/32 31/0/32
f 65/0/33 58/0/33 25/0/33
f 64/0/34 65/0/34 32/0/34
f 67/0/35 68/0/35 69/0/35
f 70/0/36 71/0/36 72/0/36
f 70/0/37 73/0/37 75/0/37
f 15/0/187 14/0/187 76/0/187
f 78/0/188 79/0/188 76/0/188
f 78/0/189 5/0/189 80/0/189
f 5/0/190 3/0/190 81/0/190
f 67/0/42 82/0/42 83/0/42
f 85/0/191 73/0/191 72/0/191
f 85/0/192 86/0/192 75/0/192
f 74/0/45 75/0/45 86/0/45
f 71/0/46 88/0/46 84/0/46
f 89/0/47 85/0/47 84/0/47
f 89/0/48 87/0/48 86/0/48
f 90/0/49 91/0/49 92/0/49
f 90/0/50 93/0/50 95/0/50
f 97/0/193 98/0/193 99/0/193
f 100/0/194 101/0/194 102/0/194
f 104/0/195 105/0/195 102/0/195
f 104/0/54 96/0/54 99/0/54
f 107/0/196 108/0/196 109/0/196
f 109/0/197 108/0/197 110/0/197
f 111/0/198 110/0/198 112/0/198
f 112/0/199 114/0/199 115/0/199
f 115/0/200 114/0/200 116/0/200
f 117/0/201 116/0/201 118/0/201
f 121/0/202 107/0/202 106/0/202
f 118/0/203 121/0/203 120/0/203
f 123/0/63 124/0/63 125/0/63
f 125/0/118 124/0/118 126/0/118
f 128/0/204 11/0/204 12/0/204
f 130/0/205 123/0/205 122/0/205
f 131/0/206 132/0/206 126/0/206
f 131/0/207 124/0/207 123/0/207
f 112/0/208 110/0/208 8/0/208
f 112/0/209 7/0/209 11/0/209
f 13/0/71 114/0/71 11/0/71
f 5/0/72 130/0/72 129/0/72
f 78/0/210 14/0/210 132/0/210
f 78/0/211 131/0/211 130/0/211
f 134/0/212 135/0/212 136/0/212
f 134/0/213 137/0/213 138/0/213
f 140/0/214 138/0/214 137/0/214
f 141/0/215 135/0/215 138/0/215
f 141/0/216 142/0/216 136/0/216
f 143/0/217 52/0/217 55/0/217
f 81/0/81 53/0/81 52/0/81
f 81/0/82 144/0/82 56/0/82
f 19/0/218 140/0/218 139/0/218
f 44/0/219 141/0/219 140/0/219
f 44/0/220 43/0/220 142/0/220
f 51/0/221 80/0/221 52/0/221
f 145/0/36 103/0/36 71/0/36
f 145/0/37 70/0/37 74/0/37
f 98/0/45 74/0/45 87/0/45
f 103/0/46 102/0/46 88/0/46
f 105/0/47 89/0/47 88/0/47
f 105/0/48 99/0/48 87/0/48
f 146/0/222 147/0/222 100/0/222
f 146/0/223 148/0/223 97/0/223
f 77/0/224 97/0/224 96/0/224
f 147/0/225 24/0/225 101/0/225
f 17/0/226 104/0/226 101/0/226
f 17/0/227 15/0/227 96/0/227
f 93/0/228 92/0/228 149/0/228
f 93/0/229 150/0/229 151/0/229
f 152/0/96 94/0/96 95/0/96
f 153/0/230 152/0/230 151/0/230
f 153/0/98 150/0/98 149/0/98
f 154/0/99 149/0/99 92/0/99
f 148/0/231 100/0/231 91/0/231
f 148/0/232 90/0/232 94/0/232
f 97/0/233 94/0/233 152/0/233
f 145/0/234 98/0/234 152/0/234
f 145/0/235 153/0/235 154/0/235
f 100/0/236 103/0/236 154/0/236
f 106/0/106 109/0/106 59/0/106
f 59/0/107 109/0/107 111/0/107
f 60/0/237 111/0/237 113/0/237
f 113/0/238 115/0/238 62/0/238
f 115/0/110 117/0/110 63/0/110
f 63/0/239 117/0/239 119/0/239
f 65/0/112 120/0/112 106/0/112
f 119/0/240 120/0/240 65/0/240
f 1/0/1 4/0/1 108/0/1
f 108/0/2 4/0/2 6/0/2
f 156/0/241 157/0/241 158/0/241
f 156/0/242 159/0/242 160/0/242
f 23/0/8 1/0/8 107/0/8
f 18/0/243 23/0/243 121/0/243
f 9/0/63 122/0/63 125/0/63
f 125/0/118 127/0/118 12/0/118
f 132/0/244 128/0/244 127/0/244
f 129/0/245 122/0/245 9/0/245
f 14/0/71 13/0/71 128/0/71
f 6/0/72 129/0/72 8/0/72
f 158/0/121 157/0/121 162/0/121
f 162/0/122 157/0/122 160/0/122
f 165/0/246 162/0/246 163/0/246
f 165/0/247 166/0/247 161/0/247
f 164/0/248 163/0/248 160/0/248
f 166/0/249 155/0/249 158/0/249
f 13/0/250 16/0/250 156/0/250
f 16/0/251 18/0/251 159/0/251
f 116/0/252 165/0/252 164/0/252
f 116/0/253 114/0/253 166/0/253
f 118/0/254 164/0/254 159/0/254
f 114/0/255 13/0/255 155/0/255
f 167/0/256 168/0/256 69/0/256
f 167/0/257 68/0/257 83/0/257
f 82/0/135 170/0/135 169/0/135
f 66/0/136 69/0/136 168/0/136
f 172/0/258 171/0/258 168/0/258
f 172/0/138 167/0/138 169/0/138
f 144/0/139 67/0/139 66/0/139
f 144/0/140 81/0/140 82/0/140
f 3/0/141 170/0/141 82/0/141
f 24/0/142 147/0/142 66/0/142
f 2/0/143 24/0/143 171/0/143
f 2/0/144 172/0/144 170/0/144
f 144/0/259 147/0/259 46/0/259
f 146/0/260 47/0/260 46/0/260
f 146/0/261 77/0/261 48/0/261
f 173/0/147 174/0/147 175/0/147
f 173/0/148 176/0/148 178/0/148
f 79/0/262 80/0/262 51/0/262
f 55/0/263 54/0/263 134/0/263
f 57/0/213 137/0/213 134/0/213
f 139/0/264 137/0/264 57/0/264
f 142/0/265 143/0/265 133/0/265
f 45/0/266 139/0/266 56/0/266
f 43/0/267 51/0/267 143/0/267
f 180/0/268 176/0/268 175/0/268
f 180/0/269 181/0/269 178/0/269
f 177/0/157 178/0/157 181/0/157
f 174/0/158 183/0/158 179/0/158
f 184/0/159 182/0/159 181/0/159
f 184/0/160 180/0/160 179/0/160
f 49/0/161 48/0/161 174/0/161
f 49/0/162 173/0/162 177/0/162
f 79/0/163 50/0/163 177/0/163
f 48/0/164 77/0/164 183/0/164
f 76/0/165 79/0/165 182/0/165
f 76/0/166 184/0/166 183/0/166
